<?xml version="1.0" standalone="no"?>
<!DOCTYPE svg PUBLIC "-//W3C//DTD SVG 20010904//EN"
 "http://www.w3.org/TR/2001/REC-SVG-20010904/DTD/svg10.dtd">
<svg version="1.0" xmlns="http://www.w3.org/2000/svg"
 width="270.000000pt" height="270.000000pt" viewBox="0 0 270.000000 270.000000"
 preserveAspectRatio="xMidYMid meet">
<metadata>
Created by potrace 1.11, written by Peter Selinger 2001-2013
</metadata>
<g transform="translate(0.000000,270.000000) scale(0.100000,-0.100000)"
fill="#000000" stroke="none">
<path d="M1510 2684 c0 -29 41 -75 86 -94 24 -11 64 -29 89 -40 25 -11 47 -20
50 -20 3 0 44 -25 93 -56 212 -137 363 -305 475 -529 28 -57 77 -188 83 -225
3 -14 7 -34 11 -45 25 -83 35 -304 19 -415 -18 -119 -65 -269 -114 -365 -25
-49 -89 -148 -121 -188 -65 -82 -224 -223 -300 -265 -13 -8 -40 -23 -60 -34
-44 -25 -191 -89 -191 -83 0 2 -18 -2 -40 -10 -22 -8 -57 -17 -77 -20 -21 -3
-61 -9 -89 -13 -57 -9 -220 -7 -274 3 -19 4 -44 8 -55 9 -26 4 -134 34 -160
45 -91 40 -157 71 -167 81 -7 6 -35 25 -63 43 -58 37 -235 211 -235 231 0 4
-8 16 -18 27 -46 48 -136 259 -157 364 -29 151 -25 308 13 440 6 22 12 43 12
47 1 21 73 164 109 217 51 74 147 174 223 229 46 34 205 120 223 121 3 0 29 7
59 16 75 22 108 26 216 29 355 9 668 -220 772 -564 30 -99 34 -274 7 -371 -35
-129 -85 -215 -174 -305 -146 -146 -339 -214 -540 -190 -48 6 -157 45 -197 72
-21 13 -40 24 -42 24 -14 0 -103 92 -136 142 -94 141 -117 307 -62 448 5 14 9
27 9 30 -3 11 63 97 100 131 82 77 165 111 274 111 130 0 234 -64 294 -182 26
-49 28 -145 6 -195 -22 -48 -64 -95 -86 -95 -8 0 -15 -4 -15 -9 0 -5 -16 -11
-35 -13 -19 -2 -35 -3 -35 -2 0 0 15 17 34 37 69 74 56 203 -26 252 -40 23
-49 26 -112 30 -110 7 -200 -59 -238 -175 -25 -78 -5 -183 52 -265 38 -56 82
-88 183 -136 44 -20 192 -17 252 6 381 144 431 636 90 901 -135 105 -347 148
-520 104 -64 -16 -188 -75 -240 -113 -54 -40 -165 -157 -165 -174 0 -7 -4 -13
-8 -13 -12 0 -78 -143 -92 -198 -39 -152 -29 -346 26 -471 43 -98 50 -111 57
-111 4 0 7 -5 7 -11 0 -42 218 -269 259 -269 6 0 11 -4 11 -8 0 -5 35 -25 78
-45 243 -114 521 -108 766 15 101 51 153 89 244 179 144 141 234 318 268 529
9 55 11 190 3 245 -16 109 -21 133 -46 205 -38 113 -112 258 -135 268 -4 2 -8
8 -8 13 0 5 -8 19 -17 31 -24 30 -200 208 -206 208 -3 0 -29 16 -58 36 -270
184 -639 225 -964 108 -102 -37 -259 -120 -301 -159 -6 -5 -23 -19 -39 -30
-61 -43 -194 -189 -250 -275 -33 -50 -58 -93 -57 -97 2 -3 0 -9 -5 -12 -22
-14 -90 -209 -109 -306 -2 -11 -8 -42 -13 -70 -8 -40 -9 -330 -2 -330 3 0 7
-21 16 -74 19 -127 106 -334 195 -466 166 -246 427 -440 700 -518 148 -43 213
-52 385 -52 151 1 182 4 313 35 132 31 340 116 379 156 8 8 19 12 24 9 5 -4 9
-1 9 4 0 6 7 11 15 11 8 0 15 4 15 9 0 5 8 12 18 15 9 3 29 16 43 28 15 13 44
37 65 53 47 36 204 195 204 206 0 5 8 16 18 26 41 40 205 323 186 323 -2 0 4
17 14 37 16 32 52 157 68 236 14 71 19 137 19 257 0 177 -8 240 -46 380 -12
41 -22 80 -23 87 -1 7 -5 16 -9 19 -4 4 -7 13 -7 20 0 8 -13 43 -30 79 -16 36
-30 70 -30 75 0 6 -4 10 -8 10 -5 0 -9 6 -9 13 0 21 -116 200 -181 280 -90
110 -216 225 -327 300 l-40 27 -237 0 c-211 0 -238 -2 -238 -16z"/>
</g>
</svg>
