<svg xmlns="http://www.w3.org/2000/svg" width="146.163" height="155.604" viewBox="0 0 146.163 155.604">
  <g id="balloons_1_" data-name="balloons (1)" transform="translate(-14.923 1)" opacity="0.3">
    <g id="Group_260" data-name="Group 260" transform="translate(63.214 20.719)">
      <g id="Group_259" data-name="Group 259" transform="translate(0)">
        <path id="Path_163" data-name="Path 163" d="M184.915,69.765a3,3,0,0,0-4.227.365,35.229,35.229,0,0,0-7.256,14.912,3,3,0,1,0,5.853,1.319,29.216,29.216,0,0,1,5.995-12.369A3,3,0,0,0,184.915,69.765Z" transform="translate(-173.358 -69.061)" fill="none" stroke="#ab00ff" stroke-width="2"/>
      </g>
    </g>
    <g id="Group_262" data-name="Group 262" transform="translate(77.13 14.624)">
      <g id="Group_261" data-name="Group 261">
        <path id="Path_164" data-name="Path 164" d="M225.4,50.264a3,3,0,0,0-4.089-1.127l-.015.008a3,3,0,0,0,2.882,5.262l.095-.053A3,3,0,0,0,225.4,50.264Z" transform="translate(-219.742 -48.745)" fill="none" stroke="#ab00ff" stroke-width="2"/>
      </g>
    </g>
    <g id="Group_264" data-name="Group 264" transform="translate(27 62.325)">
      <g id="Group_263" data-name="Group 263">
        <path id="Path_165" data-name="Path 165" d="M59.364,208.008a3,3,0,0,0-3.967,1.5A32.5,32.5,0,0,0,52.674,224.1a3,3,0,0,0,3,2.88c.041,0,.081,0,.122,0a3,3,0,0,0,2.877-3.117,26.476,26.476,0,0,1,2.2-11.883A3,3,0,0,0,59.364,208.008Z" transform="translate(-52.647 -207.743)" fill="none" stroke="#ab00ff" stroke-width="2"/>
      </g>
    </g>
    <g id="Group_266" data-name="Group 266" transform="translate(34.627 54.884)">
      <g id="Group_265" data-name="Group 265" transform="translate(0)">
        <path id="Path_166" data-name="Path 166" d="M83.246,183.831a3,3,0,0,0-4.241-.023h0a3,3,0,1,0,4.133,4.349l.086-.084A3,3,0,0,0,83.246,183.831Z" transform="translate(-78.071 -182.941)" fill="none" stroke="#ab00ff" stroke-width="2"/>
      </g>
    </g>
    <g id="Group_268" data-name="Group 268" transform="translate(16.007)">
      <g id="Group_267" data-name="Group 267">
        <path id="Path_167" data-name="Path 167" d="M155.912,55.983A32.424,32.424,0,0,0,135.3,38.766a31.285,31.285,0,0,0-4.346-.839C128.14,16.5,111.533,0,91.529,0c-19.512,0-35.792,15.7-39.2,36.352a33.339,33.339,0,0,0-9.962,1.1A34.6,34.6,0,0,0,20.38,55.828a44.238,44.238,0,0,0,11.357,52.82,36.641,36.641,0,0,0,22.707,8.62,13.368,13.368,0,0,0-1.143,5.244c0,4.084,2.253,7.225,5.88,8.2a11.077,11.077,0,0,0,2.852.4,7.917,7.917,0,0,0,2.147-.291c.276,1.93.509,4.277.739,6.584.284,2.854.605,6.089,1.062,9.382a3,3,0,0,0,5.943-.824c-.441-3.179-.756-6.352-1.035-9.151-.292-2.933-.542-5.452-.873-7.547a9.315,9.315,0,0,0,4.425-2.645,7.73,7.73,0,0,0,1.612-8.79,12.644,12.644,0,0,0-4.217-5.228,34.91,34.91,0,0,0,10.647-9.9c.171.115.344.228.527.334a10.132,10.132,0,0,0,5.044,1.508c.135,0,.269-.005.4-.012-.247,2.148-.68,4.792-1.129,7.523-2.011,12.248-4.766,29.022,1.6,40.052a3,3,0,0,0,5.2-3c-5.3-9.174-2.743-24.726-.878-36.081.545-3.316,1.007-6.141,1.243-8.5.169.011.339.018.512.018h0a10.139,10.139,0,0,0,5.044-1.508c.053-.031.1-.065.153-.1a32.114,32.114,0,0,0,7.242,6.033,11.9,11.9,0,0,0-3.75,4.769,7.487,7.487,0,0,0,1.546,8.411,9.114,9.114,0,0,0,3.864,2.426c-3.006,12.079-.795,20.672-.688,21.072a3,3,0,0,0,5.8-1.549c-.022-.082-1.913-7.439.689-17.979a7.591,7.591,0,0,0,2.039.274h0a10.526,10.526,0,0,0,2.709-.382c3.472-.931,5.629-3.932,5.629-7.833a12.565,12.565,0,0,0-.968-4.689,34.373,34.373,0,0,0,20.974-8.064,41.4,41.4,0,0,0,10.629-49.441ZM70.2,122.379a3.072,3.072,0,0,1-1.777,1.072,1.364,1.364,0,0,1-.735-.278c-.019-.013-.04-.023-.06-.036-.056-.036-.114-.071-.172-.1l-.107-.056c-.055-.027-.11-.053-.167-.077-.039-.017-.079-.033-.118-.048-.056-.021-.113-.04-.17-.057-.04-.013-.081-.026-.121-.036-.061-.016-.123-.029-.185-.041-.037-.008-.074-.016-.111-.022-.075-.012-.151-.019-.227-.026-.025,0-.049-.006-.074-.007a2.961,2.961,0,0,0-.626.03l-.033.007c-.09.015-.18.033-.27.057l-.018,0c-.026.007-.051.017-.077.026-.067.02-.133.04-.2.065-.042.016-.083.035-.125.052s-.081.031-.121.05l-.041.023c-.042.021-.082.044-.122.067s-.1.059-.154.09-.069.046-.1.07c-.053.037-.105.075-.155.115-.029.023-.057.047-.085.072-.051.044-.1.089-.149.136-.025.025-.05.051-.075.077-.047.05-.091.1-.134.153-.023.028-.046.056-.067.085-.041.054-.079.109-.116.165-.02.031-.041.061-.06.092-.036.059-.068.119-.1.181-.013.024-.027.046-.039.07a1.179,1.179,0,0,1-1.274.767,5.136,5.136,0,0,1-1.3-.2c-.392-.105-1.434-.384-1.434-2.4,0-2.483,1.777-5.736,4.155-6.374a3.764,3.764,0,0,1,.973-.123,7.364,7.364,0,0,1,6.083,4.11A1.8,1.8,0,0,1,70.2,122.379Zm11.95-34.826q-.176.21-.344.425c-.11.14-.215.282-.32.424v0a14.6,14.6,0,0,0-1.334,2.209c-.024.049-.046.1-.07.146-.051.108-.1.215-.151.324a12.932,12.932,0,0,0-.688,1.924,10.608,10.608,0,0,0-.368,2.752c0,.072,0,.143,0,.215s.007.17.011.254q.011.266.037.528l.007.065c.011.1.019.2.033.3A28.443,28.443,0,0,1,61.9,110.345a27.241,27.241,0,0,1-7.05.929c-14.354,0-27.3-10.921-31.495-26.558A36.948,36.948,0,0,1,25.74,58.522,28.679,28.679,0,0,1,43.924,43.25a27.239,27.239,0,0,1,7.048-.929q.374,0,.749.011c0,.109-.006.217-.01.325-.007.221-.016.443-.021.665q-.012.535-.012,1.065t.012,1.07c0,.144.009.287.013.43.006.207.013.415.021.622.008.185.018.37.028.554.008.158.017.316.027.474.014.215.029.43.045.644q.014.18.029.359.031.366.066.73c.007.077.016.155.024.232q.043.419.093.836l.006.05a48.557,48.557,0,0,0,1.052,5.738l.014.059q.1.409.21.814l.057.214q.093.344.191.685c.036.126.073.251.11.376.053.178.106.356.16.533.062.2.126.4.191.6.034.1.066.207.1.31a45.625,45.625,0,0,0,7.293,13.755A40.257,40.257,0,0,0,76.84,85.647l.259.113q.618.267,1.244.512c.179.07.357.14.537.207q.316.118.633.23.42.148.845.286.308.1.617.194.467.143.938.274c.084.023.167.051.251.074A.083.083,0,0,0,82.149,87.553ZM97.9,97.035c0,.007-.007.015-.011.022a2.2,2.2,0,0,1-.844.78,4.269,4.269,0,0,1-2.045.7A1.489,1.489,0,0,1,93.8,97.9c-.013-.015-.029-.028-.042-.044-.049-.054-.1-.107-.152-.157-.024-.023-.05-.046-.074-.068-.052-.046-.106-.091-.16-.134l-.081-.061c-.058-.042-.118-.081-.179-.119-.025-.016-.051-.032-.077-.047-.069-.04-.141-.077-.213-.111l-.057-.028a2.977,2.977,0,0,0-1.219-.265h-.014c-.021,0-.042,0-.063,0-.076,0-.152,0-.229.013-.044,0-.088.012-.131.018s-.087.01-.131.018l-.044.011c-.047.01-.093.022-.139.033s-.114.029-.169.047c-.04.013-.079.027-.119.042-.06.022-.12.045-.178.07-.034.015-.068.031-.1.047-.061.029-.121.06-.179.094l-.092.055c-.058.036-.114.073-.17.113l-.087.064q-.08.062-.155.13c-.028.024-.055.048-.082.074-.05.048-.1.1-.143.149-.018.02-.038.037-.056.058a1.489,1.489,0,0,1-1.206.638,4.264,4.264,0,0,1-2.045-.7A2.088,2.088,0,0,1,85,96.7c0-.012-.006-.025-.01-.038a3.182,3.182,0,0,1-.094-1.394c0-.035.011-.073.017-.109.013-.083.027-.167.044-.251s.032-.143.05-.217.036-.151.058-.227l.017-.06a8.946,8.946,0,0,1,2.64-3.984c.058-.05.113-.1.167-.157a5.846,5.846,0,0,1,3.641-1.494,4.892,4.892,0,0,1,1.985.45c.046.025.089.052.137.075a8.655,8.655,0,0,1,3.4,3.119l.022.035q.105.167.2.337l.038.068q.078.14.15.281l.039.077c.057.116.112.232.163.349l.01.024q.078.18.146.362l.006.015c.047.128.091.257.131.386.012.039.024.079.036.122v0c.012.042.024.086.035.131.024.093.044.182.063.27A3.122,3.122,0,0,1,97.9,97.035ZM96.058,82.426l-.014,0c-.246.037-.493.071-.74.1l-.087.011c-.24.03-.482.056-.723.08-.977.1-1.966.149-2.965.149a30.017,30.017,0,0,1-4.873-.4q-.261-.043-.52-.09l-.311-.059c-.155-.03-.311-.061-.465-.093L85,82.051c-.14-.031-.28-.062-.419-.1s-.268-.066-.4-.1-.254-.063-.381-.1c-.144-.038-.287-.079-.43-.119-.117-.033-.234-.065-.351-.1-.152-.045-.3-.092-.453-.139-.108-.034-.217-.066-.325-.1-.15-.049-.3-.1-.448-.151q-.431-.147-.858-.307l-.179-.066c-.2-.076-.4-.155-.592-.235l-.137-.055q-.318-.131-.632-.269l-.079-.034q-.345-.152-.686-.312h0C67.193,74.493,59,62.2,57.822,47.933c0-.016,0-.032,0-.048q-.032-.393-.056-.788c-.005-.081-.009-.162-.013-.242-.012-.211-.023-.422-.032-.633-.006-.151-.011-.3-.015-.452s-.01-.3-.014-.454c-.006-.31-.011-.62-.011-.932q0-.539.014-1.084c0-.054,0-.107.005-.161.009-.319.021-.638.037-.959,0-.04,0-.079.007-.118q.027-.5.065-1.008c0-.031.005-.063.007-.095q.04-.5.091-1.007C59.846,20.867,74.183,6,91.527,6c17.646,0,32.179,15.39,33.715,34.954h0c.045.574.079,1.148.1,1.716,0,.024,0,.048,0,.072q.015.392.023.78c0,.1,0,.209,0,.313,0,.184.006.368.006.55C125.38,63.536,112.628,79.9,96.058,82.426Zm22.037,37.789a4.576,4.576,0,0,1-1.156.178.9.9,0,0,1-1-.6l0-.007a3.1,3.1,0,0,0-.15-.272c-.009-.015-.02-.029-.03-.043-.046-.072-.1-.142-.148-.21-.018-.023-.038-.045-.057-.067-.047-.057-.095-.113-.146-.166-.022-.023-.046-.045-.068-.067-.051-.05-.1-.1-.158-.145-.025-.022-.052-.042-.079-.063-.054-.043-.109-.084-.166-.123l-.093-.061q-.082-.052-.168-.1l-.112-.058c-.054-.026-.108-.05-.164-.074s-.087-.036-.131-.052c-.022-.008-.042-.018-.065-.026s-.069-.019-.1-.029-.054-.019-.082-.027-.028,0-.042-.008a3.065,3.065,0,0,0-.332-.066l-.015,0a2.984,2.984,0,0,0-.368-.024h-.019l-.035,0a2.936,2.936,0,0,0-.375.028l-.05.006a3.029,3.029,0,0,0-.392.089l-.067.022a3.04,3.04,0,0,0-.341.132l-.045.02a3.018,3.018,0,0,0-.347.2c-.01.007-.022.011-.032.018a1.077,1.077,0,0,1-.569.224,2.737,2.737,0,0,1-1.509-.938c-.252-.252-.722-.722-.245-1.873a6.63,6.63,0,0,1,5.475-3.7,3.3,3.3,0,0,1,.852.107c2.127.57,3.716,3.5,3.716,5.736C119.277,119.9,118.449,120.12,118.095,120.215Zm34.661-37.291C148.878,97.4,136.9,107.5,123.625,107.5a25.165,25.165,0,0,1-6.512-.859,25.651,25.651,0,0,1-13.207-8.588,9.1,9.1,0,0,0,.274-2.7c0-.081-.012-.164-.018-.246-.01-.153-.021-.306-.038-.461-.013-.121-.033-.243-.051-.364s-.035-.24-.057-.361-.053-.263-.081-.395c-.025-.116-.052-.233-.081-.35-.014-.057-.024-.113-.04-.171-.036-.135-.076-.27-.118-.405l0-.007v0q-.095-.311-.209-.62c-.022-.06-.045-.12-.068-.18-.047-.124-.1-.247-.147-.37-.04-.1-.08-.2-.123-.292l-.03-.066a14.82,14.82,0,0,0-2.222-3.53c.118-.032.234-.069.352-.1.186-.052.371-.106.556-.161A39.253,39.253,0,0,0,120.939,74.34a46.1,46.1,0,0,0,9.409-19.9c.014-.069.028-.139.042-.208q.081-.4.157-.8c.025-.131.047-.263.071-.4.037-.208.073-.415.107-.623.027-.166.053-.332.079-.5s.054-.353.079-.53.052-.373.076-.56c.021-.16.041-.32.061-.481q.036-.3.068-.594c.017-.153.032-.306.047-.459.02-.2.04-.408.058-.612.013-.15.025-.3.036-.451.016-.206.032-.413.045-.621.01-.152.018-.3.026-.456.011-.206.023-.413.032-.62.007-.156.011-.312.016-.468.007-.2.015-.41.019-.615,0-.156,0-.313.005-.47,0-.2.007-.4.007-.594,0-.026,0-.052,0-.078q0-.13,0-.261,1.2.2,2.372.515a26.505,26.505,0,0,1,16.8,14.117A34.211,34.211,0,0,1,152.756,82.925Z" transform="translate(-16.007)" fill="none" stroke="#ab00ff" stroke-width="2"/>
      </g>
    </g>
  </g>
</svg>
