<svg xmlns="http://www.w3.org/2000/svg" width="146" height="131.599" viewBox="0 0 146 131.599">
  <g id="digital-camera" transform="translate(1 -24.6)" opacity="0.3">
    <g id="Group_306" data-name="Group 306" transform="translate(0 25.6)">
      <g id="Group_305" data-name="Group 305" transform="translate(0 0)">
        <path id="Path_186" data-name="Path 186" d="M141.6,332.8h-24a2.4,2.4,0,1,0,0,4.8h21.6V364a7.209,7.209,0,0,1-7.2,7.2H12A7.209,7.209,0,0,1,4.8,364V337.6H26.4a2.4,2.4,0,0,0,0-4.8H2.4A2.4,2.4,0,0,0,0,335.2V364a12.014,12.014,0,0,0,12,12H132a12.014,12.014,0,0,0,12-12V335.2A2.4,2.4,0,0,0,141.6,332.8Z" transform="translate(0 -246.4)" fill="none" stroke="#ab00ff" stroke-width="2"/>
        <path id="Path_187" data-name="Path 187" d="M47.789,51.229a2.4,2.4,0,1,0,4.157-2.4l-4.8-8.316a2.4,2.4,0,1,0-4.157,2.4Z" transform="translate(-30.667 -35.457)" fill="none" stroke="#ab00ff" stroke-width="2"/>
        <path id="Path_188" data-name="Path 188" d="M129.2,52.107a2.4,2.4,0,0,0,3.278-.879l4.8-8.316a2.4,2.4,0,0,0-4.157-2.4l-4.8,8.316A2.4,2.4,0,0,0,129.2,52.107Z" transform="translate(-92 -35.456)" fill="none" stroke="#ab00ff" stroke-width="2"/>
        <path id="Path_189" data-name="Path 189" d="M96.267,40a2.4,2.4,0,0,0,2.4-2.4V28a2.4,2.4,0,1,0-4.8,0v9.6A2.4,2.4,0,0,0,96.267,40Z" transform="translate(-67.467 -25.6)" fill="none" stroke="#ab00ff" stroke-width="2"/>
        <path id="Path_190" data-name="Path 190" d="M194.928,199.125A28.806,28.806,0,1,0,211.2,225.067a29.264,29.264,0,0,0-.4-4.838,2.4,2.4,0,0,0-4.735.8,24,24,0,1,1-23.661-19.96,23.783,23.783,0,0,1,10.437,2.381,2.4,2.4,0,0,0,2.091-4.322Z" transform="translate(-110.4 -148.267)" fill="none" stroke="#ab00ff" stroke-width="2"/>
        <path id="Path_191" data-name="Path 191" d="M119.467,200.533a38.407,38.407,0,0,0,74.616,12.8,2.4,2.4,0,0,0-4.529-1.6,33.6,33.6,0,1,1-11.524-38.083,2.4,2.4,0,1,0,2.883-3.835,38.4,38.4,0,0,0-61.445,30.718Z" transform="translate(-85.867 -123.733)" fill="none" stroke="#ab00ff" stroke-width="2"/>
        <path id="Path_192" data-name="Path 192" d="M257.867,110.933h-33.6a2.4,2.4,0,0,0,0,4.8h33.6a2.4,2.4,0,0,0,0-4.8Z" transform="translate(-159.467 -86.933)" fill="none" stroke="#ab00ff" stroke-width="2"/>
        <path id="Path_193" data-name="Path 193" d="M249.867,247.467a2.4,2.4,0,1,0,0,4.8,9.611,9.611,0,0,1,9.6,9.6,2.4,2.4,0,0,0,4.8,0A14.416,14.416,0,0,0,249.867,247.467Z" transform="translate(-177.867 -185.067)" fill="none" stroke="#ab00ff" stroke-width="2"/>
        <path id="Path_194" data-name="Path 194" d="M132,91.2H117.6c-3.221,0-5.045-3.451-5.054-3.473l-2.379-4.757c-2.052-4.325-4.853-6.17-9.367-6.17H62.4c-4.69,0-7.411,1.8-9.348,6.127l-2.393,4.786c-.017.036-1.839,3.487-5.059,3.487H38.4V88.8A2.4,2.4,0,0,0,36,86.4H21.6a2.4,2.4,0,0,0-2.4,2.4v2.4H12a12.014,12.014,0,0,0-12,12v38.4a2.4,2.4,0,1,0,4.8,0V103.2A7.209,7.209,0,0,1,12,96h9.6A2.4,2.4,0,0,0,24,93.6V91.2h9.6v2.4A2.4,2.4,0,0,0,36,96h9.6c6.211,0,9.221-5.878,9.346-6.127l2.443-4.891c1.3-2.892,2.39-3.381,5.011-3.381h38.4c2.352,0,3.639.5,5.052,3.473l2.4,4.8c.127.249,3.137,6.127,9.348,6.127H132a7.209,7.209,0,0,1,7.2,7.2v38.4a2.4,2.4,0,0,0,4.8,0V103.2A12.014,12.014,0,0,0,132,91.2Z" transform="translate(0 -62.4)" fill="none" stroke="#ab00ff" stroke-width="2"/>
        <path id="Path_195" data-name="Path 195" d="M326.523,203.692a2.4,2.4,0,0,0,4.555,0l4.421-13.26,13.26-4.421a2.4,2.4,0,0,0,0-4.555l-13.26-4.421-4.421-13.26a2.4,2.4,0,0,0-4.555,0l-4.421,13.26-13.262,4.421a2.4,2.4,0,0,0,0,4.555l13.262,4.421Zm-1.764-22.481a2.4,2.4,0,0,0,1.519-1.519l2.522-7.569,2.522,7.569a2.4,2.4,0,0,0,1.517,1.519l7.572,2.522-7.572,2.523a2.4,2.4,0,0,0-1.517,1.519l-2.522,7.569-2.523-7.57a2.4,2.4,0,0,0-1.519-1.519l-7.569-2.522Z" transform="translate(-220.801 -123.734)" fill="none" stroke="#ab00ff" stroke-width="2"/>
      </g>
    </g>
  </g>
</svg>
