<svg xmlns="http://www.w3.org/2000/svg" width="93.747" height="100" viewBox="0 0 93.747 100">
  <g id="balloons_1_" data-name="balloons (1)" transform="translate(-16.008)">
    <g id="Group_260" data-name="Group 260" transform="translate(46.74 13.489)">
      <g id="Group_259" data-name="Group 259" transform="translate(0)">
        <path id="Path_163" data-name="Path 163" d="M180.882,69.52a1.953,1.953,0,0,0-2.752.237,22.935,22.935,0,0,0-4.724,9.708,1.953,1.953,0,1,0,3.81.859,19.02,19.02,0,0,1,3.9-8.053A1.953,1.953,0,0,0,180.882,69.52Z" transform="translate(-173.358 -69.061)" fill="#ffdb4d"/>
      </g>
    </g>
    <g id="Group_262" data-name="Group 262" transform="translate(55.799 9.521)">
      <g id="Group_261" data-name="Group 261">
        <path id="Path_164" data-name="Path 164" d="M223.428,49.734A1.952,1.952,0,0,0,220.766,49l-.01.005a1.953,1.953,0,0,0,1.876,3.426l.062-.034A1.954,1.954,0,0,0,223.428,49.734Z" transform="translate(-219.742 -48.745)" fill="#ffdb4d"/>
      </g>
    </g>
    <g id="Group_264" data-name="Group 264" transform="translate(23.164 40.575)">
      <g id="Group_263" data-name="Group 263">
        <path id="Path_165" data-name="Path 165" d="M57.02,207.916a1.953,1.953,0,0,0-2.583.978,21.16,21.16,0,0,0-1.772,9.5,1.953,1.953,0,0,0,1.95,1.875l.079,0a1.953,1.953,0,0,0,1.873-2.029A17.237,17.237,0,0,1,58,210.5,1.953,1.953,0,0,0,57.02,207.916Z" transform="translate(-52.647 -207.743)" fill="#ffdb4d"/>
      </g>
    </g>
    <g id="Group_266" data-name="Group 266" transform="translate(28.129 35.731)">
      <g id="Group_265" data-name="Group 265" transform="translate(0)">
        <path id="Path_166" data-name="Path 166" d="M81.44,183.521a1.952,1.952,0,0,0-2.761-.015h0a1.953,1.953,0,1,0,2.691,2.831l.056-.054A1.953,1.953,0,0,0,81.44,183.521Z" transform="translate(-78.071 -182.941)" fill="#ffdb4d"/>
      </g>
    </g>
    <g id="Group_268" data-name="Group 268" transform="translate(16.007)">
      <g id="Group_267" data-name="Group 267">
        <path id="Path_167" data-name="Path 167" d="M107.089,36.446A21.109,21.109,0,0,0,93.671,25.237a20.368,20.368,0,0,0-2.829-.546C89.009,10.744,78.2,0,65.174,0c-12.7,0-23.3,10.221-25.517,23.666a21.7,21.7,0,0,0-6.486.718A22.526,22.526,0,0,0,18.854,36.345a28.8,28.8,0,0,0,7.394,34.387,23.854,23.854,0,0,0,14.783,5.612,8.7,8.7,0,0,0-.744,3.414A5.216,5.216,0,0,0,44.115,85.1a7.211,7.211,0,0,0,1.856.262,5.154,5.154,0,0,0,1.4-.189c.179,1.256.331,2.785.481,4.287.185,1.858.394,3.964.691,6.108a1.953,1.953,0,0,0,3.869-.537c-.287-2.069-.492-4.135-.674-5.958-.19-1.909-.353-3.549-.568-4.913a6.064,6.064,0,0,0,2.881-1.722A5.032,5.032,0,0,0,55.1,76.711a8.231,8.231,0,0,0-2.746-3.4,22.727,22.727,0,0,0,6.932-6.448c.111.075.224.149.343.217a6.6,6.6,0,0,0,3.284.982c.088,0,.175,0,.262-.008-.161,1.4-.443,3.12-.735,4.9-1.309,7.974-3.1,18.894,1.043,26.075a1.953,1.953,0,0,0,3.382-1.953c-3.448-5.973-1.786-16.1-.571-23.489.354-2.159.655-4,.809-5.534.11.007.221.012.333.012h0a6.6,6.6,0,0,0,3.284-.982c.034-.02.066-.043.1-.063a20.907,20.907,0,0,0,4.714,3.927,7.745,7.745,0,0,0-2.441,3.1A4.874,4.874,0,0,0,74.1,79.522,5.933,5.933,0,0,0,76.614,81.1a29.6,29.6,0,0,0-.448,13.719,1.953,1.953,0,0,0,3.773-1.009,25.9,25.9,0,0,1,.449-11.7,4.942,4.942,0,0,0,1.328.179h0a6.853,6.853,0,0,0,1.763-.249,4.987,4.987,0,0,0,3.665-5.1,8.18,8.18,0,0,0-.63-3.053,22.378,22.378,0,0,0,13.655-5.25,26.954,26.954,0,0,0,6.92-32.187Zm-55.8,43.225a2,2,0,0,1-1.157.7.888.888,0,0,1-.478-.181c-.013-.009-.026-.015-.039-.023-.037-.024-.074-.046-.112-.067l-.07-.037c-.036-.018-.072-.035-.108-.05l-.077-.031c-.036-.014-.073-.026-.11-.037l-.079-.024c-.04-.011-.08-.019-.121-.027l-.072-.014c-.049-.008-.1-.013-.147-.017l-.048,0a1.928,1.928,0,0,0-.407.019l-.022,0c-.059.01-.117.022-.176.037l-.012,0c-.017,0-.033.011-.05.017-.043.013-.087.026-.13.042-.028.01-.054.022-.081.034s-.053.021-.079.033l-.027.015c-.027.013-.053.029-.08.043s-.068.038-.1.059-.045.03-.067.046-.068.049-.1.075l-.055.047c-.033.029-.066.058-.1.089l-.049.05c-.03.032-.059.065-.087.1l-.044.055c-.027.035-.052.071-.076.107-.013.02-.027.04-.039.06-.023.038-.045.078-.065.118-.008.016-.018.03-.025.046a.767.767,0,0,1-.829.5,3.344,3.344,0,0,1-.846-.129c-.255-.068-.933-.25-.933-1.564,0-1.617,1.157-3.735,2.7-4.149a2.451,2.451,0,0,1,.633-.08,4.794,4.794,0,0,1,3.96,2.676A1.174,1.174,0,0,1,51.288,79.672ZM59.067,57q-.115.137-.224.276c-.071.091-.14.183-.208.276h0a9.507,9.507,0,0,0-.869,1.438c-.016.032-.03.063-.046.1-.033.07-.067.14-.1.211a8.419,8.419,0,0,0-.448,1.252,6.906,6.906,0,0,0-.24,1.791c0,.047,0,.093,0,.14s0,.11.007.165q.007.173.024.344l0,.042c.007.066.012.131.021.2a18.517,18.517,0,0,1-11.1,8.609,17.735,17.735,0,0,1-4.589.605c-9.345,0-17.776-7.11-20.5-17.29A24.054,24.054,0,0,1,22.344,38.1a18.671,18.671,0,0,1,11.838-9.943,17.733,17.733,0,0,1,4.589-.605q.243,0,.488.007c0,.071,0,.141-.007.212,0,.144-.011.288-.014.433q-.008.348-.008.694t.008.7c0,.094.006.187.008.28,0,.135.008.27.014.4s.012.241.018.361c.005.1.011.206.018.309.009.14.019.28.029.419q.009.117.019.234.02.238.043.475c0,.05.01.1.016.151q.028.273.061.544l0,.033a31.612,31.612,0,0,0,.685,3.735l.009.038q.066.266.137.53l.037.139q.061.224.125.446c.023.082.047.163.071.245.034.116.069.232.1.347.04.131.082.261.124.391.022.067.043.135.065.2a29.7,29.7,0,0,0,4.748,8.955,26.209,26.209,0,0,0,10.038,7.926l.169.073q.4.174.81.333c.116.046.233.091.35.135q.206.077.412.149.274.1.55.186.2.065.4.127.3.093.611.178c.055.015.109.033.164.048A.054.054,0,0,0,59.067,57Zm10.257,6.173-.007.015a1.431,1.431,0,0,1-.549.508,2.78,2.78,0,0,1-1.331.458.969.969,0,0,1-.786-.416c-.009-.01-.019-.019-.027-.028-.032-.035-.065-.07-.1-.1l-.048-.045c-.034-.03-.069-.059-.1-.087l-.053-.04c-.038-.027-.077-.053-.116-.078l-.05-.031c-.045-.026-.092-.05-.139-.072l-.037-.018a1.938,1.938,0,0,0-.794-.172h-.009l-.041,0c-.049,0-.1,0-.149.008-.029,0-.057.008-.085.012s-.056.006-.085.012l-.029.007c-.03.006-.06.014-.09.022s-.074.019-.11.03l-.077.027c-.039.014-.078.029-.116.046l-.066.031c-.04.019-.079.039-.116.061l-.06.036c-.038.023-.074.048-.11.074l-.056.042q-.052.04-.1.084l-.053.048c-.033.031-.063.064-.093.1-.012.013-.025.024-.037.038a.969.969,0,0,1-.785.415,2.776,2.776,0,0,1-1.331-.459,1.359,1.359,0,0,1-.658-.74c0-.008,0-.016-.007-.024a2.071,2.071,0,0,1-.061-.907c0-.023.007-.047.011-.071.008-.054.018-.108.029-.163s.021-.093.033-.141.024-.1.038-.148l.011-.039A5.824,5.824,0,0,1,62.7,58.867c.037-.033.074-.067.108-.1a3.806,3.806,0,0,1,2.37-.973,3.185,3.185,0,0,1,1.292.293c.03.016.058.034.089.049a5.635,5.635,0,0,1,2.215,2.031l.014.022q.069.108.131.219l.025.045q.051.091.1.183l.026.05c.037.075.073.151.106.227l.007.016q.051.117.1.236l0,.01c.031.084.059.167.085.251.008.025.016.052.023.079v0c.008.027.015.056.023.086.016.061.029.119.041.176A2.032,2.032,0,0,1,69.324,63.172Zm-1.2-9.511h-.009c-.16.024-.321.046-.482.067l-.057.007c-.156.019-.313.036-.471.052-.636.063-1.28.1-1.93.1A19.541,19.541,0,0,1,62,53.626q-.17-.028-.338-.059l-.2-.038-.3-.061-.235-.051-.273-.062-.261-.065c-.083-.021-.166-.041-.248-.063l-.28-.078-.229-.065c-.1-.029-.2-.06-.295-.091l-.212-.066c-.1-.032-.194-.065-.291-.1q-.281-.1-.559-.2l-.116-.043c-.129-.049-.257-.1-.386-.153l-.089-.036q-.207-.085-.412-.175l-.051-.022q-.224-.1-.446-.2h0C49.331,48.5,44,40.495,43.23,31.206c0-.01,0-.021,0-.031q-.021-.256-.037-.513c0-.053-.006-.105-.009-.158-.008-.137-.015-.274-.021-.412,0-.1-.007-.2-.01-.295s-.007-.2-.009-.3c0-.2-.007-.4-.007-.607q0-.351.009-.705c0-.035,0-.07,0-.1.006-.208.014-.416.024-.624,0-.026,0-.051,0-.077q.018-.328.042-.656l0-.062q.026-.328.059-.656C44.547,13.585,53.881,3.9,65.173,3.9c11.488,0,20.949,10.019,21.949,22.756h0c.029.374.051.747.066,1.117,0,.016,0,.031,0,.047q.01.255.015.508c0,.068,0,.136,0,.2,0,.12,0,.239,0,.358C87.212,41.364,78.91,52.015,68.122,53.661Zm14.347,24.6a2.979,2.979,0,0,1-.752.116.585.585,0,0,1-.652-.389l0,0a2.019,2.019,0,0,0-.1-.177l-.019-.028c-.03-.047-.062-.092-.1-.137-.012-.015-.025-.029-.037-.044-.03-.037-.062-.073-.1-.108l-.045-.044c-.033-.032-.067-.064-.1-.094l-.051-.041c-.035-.028-.071-.055-.108-.08l-.061-.039q-.053-.034-.109-.064l-.073-.038c-.035-.017-.071-.033-.107-.048l-.085-.034-.042-.017c-.022-.008-.045-.012-.067-.019l-.054-.018-.027-.005a2,2,0,0,0-.216-.043l-.01,0a1.941,1.941,0,0,0-.239-.016h-.013l-.023,0a1.912,1.912,0,0,0-.244.018l-.032,0a1.973,1.973,0,0,0-.255.058l-.044.014a1.978,1.978,0,0,0-.222.086l-.029.013a1.966,1.966,0,0,0-.226.129l-.021.012a.7.7,0,0,1-.37.146,1.782,1.782,0,0,1-.982-.611c-.164-.164-.47-.47-.16-1.219a4.316,4.316,0,0,1,3.564-2.409,2.145,2.145,0,0,1,.555.07c1.385.371,2.419,2.278,2.42,3.735C83.239,78.057,82.7,78.2,82.469,78.263Zm22.565-24.277c-2.525,9.422-10.323,16-18.965,16a16.384,16.384,0,0,1-4.239-.559,16.7,16.7,0,0,1-8.6-5.591,5.922,5.922,0,0,0,.178-1.761c0-.053-.008-.107-.012-.16-.007-.1-.013-.2-.025-.3-.009-.079-.021-.158-.033-.237s-.023-.156-.037-.235-.034-.171-.053-.257-.034-.152-.053-.228c-.009-.037-.016-.074-.026-.111-.024-.088-.05-.176-.077-.264v-.006q-.062-.2-.136-.4c-.014-.039-.029-.078-.044-.117-.031-.08-.062-.161-.1-.241-.026-.063-.052-.127-.08-.19l-.02-.043a9.648,9.648,0,0,0-1.446-2.3c.077-.021.152-.045.229-.066.121-.034.241-.069.362-.1A25.555,25.555,0,0,0,84.321,48.4a30.015,30.015,0,0,0,6.126-12.956c.009-.045.018-.09.027-.135q.053-.26.1-.521c.016-.086.031-.171.046-.257.024-.135.048-.27.07-.406.018-.108.034-.216.051-.324s.035-.23.052-.345.034-.243.05-.364c.014-.1.027-.208.039-.313q.023-.193.045-.387c.011-.1.021-.2.031-.3.013-.133.026-.265.037-.4.008-.1.016-.2.023-.294.01-.134.021-.269.029-.4.006-.1.012-.2.017-.3.007-.134.015-.269.021-.4,0-.1.007-.2.01-.3,0-.133.01-.267.013-.4,0-.1,0-.2,0-.306,0-.129,0-.257,0-.387,0-.017,0-.034,0-.051q0-.085,0-.17.779.13,1.544.335A17.255,17.255,0,0,1,103.6,38.2,22.272,22.272,0,0,1,105.034,53.986Z" transform="translate(-16.007)" fill="#ffdb4d"/>
      </g>
    </g>
  </g>
</svg>
