<svg xmlns="http://www.w3.org/2000/svg" width="83.287" height="100" viewBox="0 0 83.287 100">
  <g id="placeholder" transform="translate(-42.786)">
    <g id="Group_270" data-name="Group 270" transform="translate(42.786)">
      <g id="Group_269" data-name="Group 269">
        <path id="Path_168" data-name="Path 168" d="M113.876,12.2A41.372,41.372,0,0,0,84.437,0h-.007s0,0-.007,0A41.644,41.644,0,0,0,42.786,41.644c0,19.835,16.61,35.408,31.265,49.148,3.2,3,6.219,5.831,8.991,8.63a1.953,1.953,0,0,0,2.775,0c2.772-2.8,5.793-5.631,8.991-8.63,14.655-13.74,31.265-29.313,31.265-49.148A41.371,41.371,0,0,0,113.876,12.2ZM92.137,87.942c-2.7,2.535-5.281,4.952-7.707,7.346-2.426-2.394-5-4.811-7.707-7.345-14.077-13.2-30.031-28.156-30.031-46.3A37.739,37.739,0,0,1,84.429,3.906h.007a37.737,37.737,0,0,1,37.731,37.738C122.167,59.786,106.213,74.745,92.137,87.942Z" transform="translate(-42.786)" fill="#ffdb4d"/>
      </g>
    </g>
    <g id="Group_272" data-name="Group 272" transform="translate(66.584 10.895)">
      <g id="Group_271" data-name="Group 271">
        <path id="Path_169" data-name="Path 169" d="M182.356,55.784a30.673,30.673,0,0,0-16.84,5.021,1.953,1.953,0,1,0,2.139,3.268,26.776,26.776,0,0,1,14.7-4.383,1.953,1.953,0,0,0,0-3.906Z" transform="translate(-164.632 -55.784)" fill="#ffdb4d"/>
      </g>
    </g>
    <g id="Group_274" data-name="Group 274" transform="translate(61.992 19.29)">
      <g id="Group_273" data-name="Group 273">
        <path id="Path_170" data-name="Path 170" d="M144.493,99.339a1.954,1.954,0,0,0-2.762,0l-.03.03a1.953,1.953,0,0,0,2.742,2.782l.05-.049A1.953,1.953,0,0,0,144.493,99.339Z" transform="translate(-141.119 -98.767)" fill="#ffdb4d"/>
      </g>
    </g>
    <g id="Group_276" data-name="Group 276" transform="translate(82.355 63.788)">
      <g id="Group_275" data-name="Group 275">
        <path id="Path_171" data-name="Path 171" d="M264.735,327.478a1.953,1.953,0,0,0-2.7-.564,26.776,26.776,0,0,1-14.7,4.383,1.953,1.953,0,0,0,0,3.906,30.674,30.674,0,0,0,16.84-5.021A1.953,1.953,0,0,0,264.735,327.478Z" transform="translate(-245.377 -326.594)" fill="#ffdb4d"/>
      </g>
    </g>
    <g id="Group_278" data-name="Group 278" transform="translate(102.677 60.056)">
      <g id="Group_277" data-name="Group 277">
        <path id="Path_172" data-name="Path 172" d="M352.795,308.047a1.954,1.954,0,0,0-2.762.02l-.02.02a1.953,1.953,0,0,0,2.742,2.782l.06-.06A1.953,1.953,0,0,0,352.795,308.047Z" transform="translate(-349.43 -307.485)" fill="#ffdb4d"/>
      </g>
    </g>
    <g id="Group_280" data-name="Group 280" transform="translate(64.778 22.022)">
      <g id="Group_279" data-name="Group 279">
        <path id="Path_173" data-name="Path 173" d="M194.349,126.876a1.954,1.954,0,0,0-1.372-1.288l-10.57-2.711-5.845-9.214a1.953,1.953,0,0,0-3.3,0l-5.845,9.215-10.569,2.711a1.953,1.953,0,0,0-1.019,3.137l6.957,8.406-.688,10.89a1.953,1.953,0,0,0,2.669,1.939l10.145-4.019,10.143,4.019a1.953,1.953,0,0,0,2.669-1.939l-.688-10.89L194,128.725A1.953,1.953,0,0,0,194.349,126.876Zm-10.813,8.36a1.953,1.953,0,0,0-.445,1.369l.543,8.589-8-3.17a1.955,1.955,0,0,0-1.439,0l-8,3.17.543-8.589a1.954,1.954,0,0,0-.445-1.369l-5.488-6.63,8.336-2.138a1.953,1.953,0,0,0,1.164-.846l4.61-7.268,4.61,7.268a1.952,1.952,0,0,0,1.164.846l8.337,2.138Z" transform="translate(-155.383 -112.755)" fill="#ffdb4d"/>
      </g>
    </g>
  </g>
</svg>
