<svg xmlns="http://www.w3.org/2000/svg" width="100" height="89.844" viewBox="0 0 100 89.844">
  <g id="cake_1_" data-name="cake (1)" transform="translate(0 -25.999)">
    <g id="Group_240" data-name="Group 240" transform="translate(5.078 25.999)">
      <g id="Group_239" data-name="Group 239">
        <path id="Path_153" data-name="Path 153" d="M112.262,92.028a5.866,5.866,0,0,0,3.581-5.481V70.921a5.71,5.71,0,0,0-5.534-5.859h-9.114V51.456a3.953,3.953,0,0,0-1.058-2.69c1.376-1.626,2.387-4.392.532-8.829a29.906,29.906,0,0,0-4.8-7.4,1.953,1.953,0,0,0-2.957,0c-5.862,6.79-7.363,12.5-4.294,16.186a3.953,3.953,0,0,0-1.1,2.733V65.062H77.757V45.6a3.952,3.952,0,0,0-1.058-2.69c1.376-1.626,2.387-4.392.532-8.829a29.915,29.915,0,0,0-4.8-7.4,1.953,1.953,0,0,0-2.957,0c-5.861,6.79-7.363,12.5-4.294,16.186a3.954,3.954,0,0,0-1.1,2.734V65.061H54.32V51.455a3.953,3.953,0,0,0-1.057-2.689c1.376-1.626,2.387-4.392.532-8.829a29.9,29.9,0,0,0-4.8-7.4,1.953,1.953,0,0,0-2.957,0c-5.862,6.79-7.363,12.5-4.294,16.186a3.954,3.954,0,0,0-1.1,2.734V65.061H31.533A5.71,5.71,0,0,0,26,70.921V86.546a5.866,5.866,0,0,0,3.581,5.481v17.957a6.142,6.142,0,0,0,.317,1.953H28.532a1.953,1.953,0,0,0,0,3.906h84.779a1.953,1.953,0,1,0,0-3.906h-1.365a6.142,6.142,0,0,0,.317-1.953ZM94.385,36.935c2.35,3.19,4.612,7.526,2.581,9.511A3.655,3.655,0,0,1,94.4,47.484H94.37a3.578,3.578,0,0,1-2.535-1.023C89.585,44.211,92.294,39.717,94.385,36.935ZM91.429,51.456a.072.072,0,0,1,.066-.066h5.728a.072.072,0,0,1,.066.066V65.062H91.429V51.456ZM70.947,31.075c2.35,3.19,4.612,7.526,2.581,9.511a3.653,3.653,0,0,1-2.571,1.038h-.025A3.579,3.579,0,0,1,68.4,40.6C66.148,38.351,68.857,33.857,70.947,31.075Zm2.9,14.521V65.062H67.991V45.6a.072.072,0,0,1,.066-.066h5.728A.072.072,0,0,1,73.851,45.6ZM47.51,36.934c2.35,3.19,4.612,7.526,2.581,9.511a3.655,3.655,0,0,1-2.571,1.038h-.025a3.578,3.578,0,0,1-2.535-1.023C42.71,44.211,45.419,39.717,47.51,36.934ZM44.554,51.456a.072.072,0,0,1,.066-.066h5.729a.072.072,0,0,1,.065.066V65.062H44.554V51.456Zm63.8,42.188h-6.062a1.953,1.953,0,1,0,0,3.906h6.062v12.434a1.838,1.838,0,0,1-1.626,1.953H35.112a1.838,1.838,0,0,1-1.626-1.953v-1.5h6.062a1.953,1.953,0,0,0,0-3.906H33.486V92.028a5.866,5.866,0,0,0,3.581-5.481V80.734a2.259,2.259,0,0,1,2.025-2.387,2.259,2.259,0,0,1,2.025,2.387v8.019a5.942,5.942,0,1,0,11.863,0V80.734a2.053,2.053,0,1,1,4.051,0v.5a5.942,5.942,0,1,0,11.863,0v-.5a2.053,2.053,0,1,1,4.051,0v4.113a5.942,5.942,0,1,0,11.863,0V80.734a2.053,2.053,0,1,1,4.051,0v.5a5.942,5.942,0,1,0,11.863,0v-.5a2.053,2.053,0,1,1,4.051,0v5.813a5.866,5.866,0,0,0,3.581,5.481v1.616Zm3.581-7.1a1.655,1.655,0,1,1-3.255,0V80.734a5.942,5.942,0,1,0-11.864,0v.5a2.053,2.053,0,1,1-4.051,0v-.5a5.942,5.942,0,1,0-11.863,0v4.113a2.053,2.053,0,1,1-4.051,0V80.734a5.942,5.942,0,1,0-11.863,0v.5a2.053,2.053,0,1,1-4.051,0v-.5a5.942,5.942,0,1,0-11.864,0v8.019a2.053,2.053,0,1,1-4.051,0V80.734a5.942,5.942,0,1,0-11.863,0v5.813A1.838,1.838,0,0,1,31.533,88.5a1.838,1.838,0,0,1-1.628-1.953V70.921a1.838,1.838,0,0,1,1.628-1.953h78.776a1.838,1.838,0,0,1,1.628,1.953V86.546Z" transform="translate(-25.999 -25.999)" fill="#ffdb4d"/>
      </g>
    </g>
    <g id="Group_242" data-name="Group 242" transform="translate(96.048 111.937)">
      <g id="Group_241" data-name="Group 241">
        <path id="Path_154" data-name="Path 154" d="M493.763,466h-.046a1.953,1.953,0,0,0,0,3.906h.046a1.953,1.953,0,0,0,0-3.906Z" transform="translate(-491.764 -466)" fill="#ffdb4d"/>
      </g>
    </g>
    <g id="Group_244" data-name="Group 244" transform="translate(0 111.937)">
      <g id="Group_243" data-name="Group 243">
        <path id="Path_155" data-name="Path 155" d="M2,466H1.953a1.953,1.953,0,1,0,0,3.906H2A1.953,1.953,0,1,0,2,466Z" transform="translate(0 -466)" fill="#ffdb4d"/>
      </g>
    </g>
    <g id="Group_246" data-name="Group 246" transform="translate(22.285 104.582)">
      <g id="Group_245" data-name="Group 245">
        <path id="Path_156" data-name="Path 156" d="M116.1,428.342h-.046a1.953,1.953,0,0,0,0,3.906h.046a1.953,1.953,0,0,0,0-3.906Z" transform="translate(-114.099 -428.342)" fill="#ffdb4d"/>
      </g>
    </g>
    <g id="Group_248" data-name="Group 248" transform="translate(73.763 93.644)">
      <g id="Group_247" data-name="Group 247">
        <path id="Path_157" data-name="Path 157" d="M379.663,372.343h-.046a1.953,1.953,0,1,0,0,3.906h.046a1.953,1.953,0,0,0,0-3.906Z" transform="translate(-377.664 -372.343)" fill="#ffdb4d"/>
      </g>
    </g>
    <g id="Group_250" data-name="Group 250" transform="translate(44.102 92.668)">
      <g id="Group_249" data-name="Group 249" transform="translate(0 0)">
        <path id="Path_158" data-name="Path 158" d="M231.468,367.345h-3.711a1.953,1.953,0,1,0,0,3.906h3.711a1.953,1.953,0,0,0,0-3.906Z" transform="translate(-225.804 -367.345)" fill="#ffdb4d"/>
      </g>
    </g>
    <g id="Group_252" data-name="Group 252" transform="translate(31.212 98.235)">
      <g id="Group_251" data-name="Group 251">
        <path id="Path_159" data-name="Path 159" d="M164.3,395.849h-2.539a1.953,1.953,0,1,0,0,3.906H164.3a1.953,1.953,0,0,0,0-3.906Z" transform="translate(-159.804 -395.849)" fill="#ffdb4d"/>
      </g>
    </g>
    <g id="Group_254" data-name="Group 254" transform="translate(72.813 104.582)">
      <g id="Group_253" data-name="Group 253">
        <path id="Path_160" data-name="Path 160" d="M379.249,428.342h-4.492a1.953,1.953,0,0,0,0,3.906h4.492a1.953,1.953,0,0,0,0-3.906Z" transform="translate(-372.804 -428.342)" fill="#ffdb4d"/>
      </g>
    </g>
    <g id="Group_256" data-name="Group 256" transform="translate(60.606 96.38)">
      <g id="Group_255" data-name="Group 255">
        <path id="Path_161" data-name="Path 161" d="M314.8,386.349h-2.539a1.953,1.953,0,0,0,0,3.906H314.8a1.953,1.953,0,0,0,0-3.906Z" transform="translate(-310.304 -386.349)" fill="#ffdb4d"/>
      </g>
    </g>
    <g id="Group_258" data-name="Group 258" transform="translate(49.669 104.582)">
      <g id="Group_257" data-name="Group 257">
        <path id="Path_162" data-name="Path 162" d="M258.8,428.342h-2.539a1.953,1.953,0,0,0,0,3.906H258.8a1.953,1.953,0,0,0,0-3.906Z" transform="translate(-254.304 -428.342)" fill="#ffdb4d"/>
      </g>
    </g>
  </g>
</svg>
