<svg xmlns="http://www.w3.org/2000/svg" width="104.093" height="102.215" viewBox="0 0 104.093 102.215">
  <g id="television" transform="translate(1 -4.032)" opacity="0.8">
    <g id="Group_2205" data-name="Group 2205" transform="translate(0 5.247)">
      <g id="Group_2204" data-name="Group 2204">
        <path id="Path_327" data-name="Path 327" d="M92.695,23.054H34.172l8.54-13.082A3.055,3.055,0,1,0,37.6,6.633l-8.931,13.68L19.735,6.632A3.055,3.055,0,0,0,14.62,9.972L23.16,23.054H9.4a9.408,9.408,0,0,0-9.4,9.4V86.22a9.408,9.408,0,0,0,9.4,9.4H10.4v6.575a3.055,3.055,0,0,0,3.055,3.055H28.666a3.055,3.055,0,0,0,3.055-3.055V95.618H70.373v6.575a3.055,3.055,0,0,0,3.055,3.055H88.636a3.055,3.055,0,0,0,3.055-3.055V95.618h1a9.408,9.408,0,0,0,9.4-9.4V32.452A9.408,9.408,0,0,0,92.695,23.054ZM25.611,99.138h-9.1v-3.52h9.1Zm59.97,0h-9.1v-3.52h9.1Zm7.114-9.63H9.4A3.292,3.292,0,0,1,6.109,86.22V32.452A3.292,3.292,0,0,1,9.4,29.163h83.3a3.292,3.292,0,0,1,3.288,3.288V86.22h0A3.292,3.292,0,0,1,92.7,89.508Z" transform="translate(0 -5.247)" fill="none" stroke="#ffdd36" stroke-width="2"/>
      </g>
    </g>
    <g id="Group_2207" data-name="Group 2207" transform="translate(11.337 34.254)">
      <g id="Group_2206" data-name="Group 2206">
        <path id="Path_328" data-name="Path 328" d="M114.894,150.719H59.912a3.055,3.055,0,0,0-3.055,3.055v44.054a3.055,3.055,0,0,0,3.055,3.055h54.983a3.055,3.055,0,0,0,3.055-3.055V153.774A3.055,3.055,0,0,0,114.894,150.719Zm-3.055,44.054H62.966V156.828H111.84Z" transform="translate(-56.857 -150.719)" fill="none" stroke="#ffdd36" stroke-width="2"/>
      </g>
    </g>
    <g id="Group_2209" data-name="Group 2209" transform="translate(74.89 38.955)">
      <g id="Group_2208" data-name="Group 2208">
        <path id="Path_329" data-name="Path 329" d="M384.926,174.295a9.35,9.35,0,1,0,9.35,9.35A9.361,9.361,0,0,0,384.926,174.295Zm0,12.591a3.241,3.241,0,1,1,3.241-3.241A3.245,3.245,0,0,1,384.926,186.886Z" transform="translate(-375.576 -174.295)" fill="none" stroke="#ffdd36" stroke-width="2"/>
      </g>
    </g>
    <g id="Group_2211" data-name="Group 2211" transform="translate(74.89 62.065)">
      <g id="Group_2210" data-name="Group 2210">
        <path id="Path_330" data-name="Path 330" d="M384.926,290.191a9.35,9.35,0,1,0,9.35,9.35A9.361,9.361,0,0,0,384.926,290.191Zm0,12.591a3.241,3.241,0,1,1,3.241-3.241A3.245,3.245,0,0,1,384.926,302.782Z" transform="translate(-375.576 -290.191)" fill="none" stroke="#ffdd36" stroke-width="2"/>
      </g>
    </g>
  </g>
</svg>
