<svg xmlns="http://www.w3.org/2000/svg" width="66.453" height="102" viewBox="0 0 66.453 102">
  <path id="Union_34" data-name="Union 34" d="M8.788,100a2.929,2.929,0,0,1-2.449-4.536l6.54-9.973a26.4,26.4,0,0,1-7.02-17.913V66.046L1.842,64.439A2.929,2.929,0,0,1,0,61.719V50a2.931,2.931,0,0,1,1.842-2.72l4.017-1.607V44.14A26.57,26.57,0,0,1,25.923,18.348L24.3,16.72a2.929,2.929,0,0,1-.549-3.382L29.605,1.62a2.93,2.93,0,0,1,5.241,0l5.859,11.718a2.929,2.929,0,0,1-.548,3.382L38.53,18.348A26.569,26.569,0,0,1,58.593,44.14v1.532l4.018,1.608A2.93,2.93,0,0,1,64.453,50V61.719a2.93,2.93,0,0,1-1.842,2.72l-4.018,1.608v1.531a26.4,26.4,0,0,1-7.02,17.913l6.541,9.973A2.93,2.93,0,0,1,55.664,100ZM18.6,82.9a2.93,2.93,0,0,1,.5,3.795l-4.882,7.446H50.239l-4.882-7.446a2.93,2.93,0,0,1,.5-3.795,20.543,20.543,0,0,0,6.858-14.5l-19.4,7.76a2.918,2.918,0,0,1-2.176,0l-19.4-7.76A20.538,20.538,0,0,0,18.6,82.9ZM5.859,51.983v7.752L32.227,70.282,58.593,59.735V51.983L32.227,41.436ZM33.315,35.561l19.4,7.76a20.5,20.5,0,0,0-40.981,0l19.4-7.76a2.922,2.922,0,0,1,2.176,0ZM29.932,14.07l2.3,2.294,2.295-2.294L32.227,9.48ZM29.3,61.719V50a2.929,2.929,0,0,1,5.859,0V61.719a2.929,2.929,0,1,1-5.859,0Zm11.718-2.929V52.93a2.93,2.93,0,1,1,5.86,0v5.859a2.93,2.93,0,0,1-5.86,0Zm-23.437,0V52.93a2.929,2.929,0,1,1,5.859,0v5.859a2.929,2.929,0,1,1-5.859,0Z" transform="translate(1 1)" fill="none" stroke="#ffdd36" stroke-width="2" opacity="0.8"/>
</svg>
