<svg xmlns="http://www.w3.org/2000/svg" width="85" height="85.019" viewBox="0 0 85 85.019">
  <path id="Union_35" data-name="Union 35" d="M5.891,82.428a2.432,2.432,0,0,1-.866-1.86V74.8a7.272,7.272,0,0,1,6.1-7.2l5.732-.955-6.84-2.28a7.286,7.286,0,0,1-4.988-6.921V50.483a7.272,7.272,0,0,1,6.1-7.2l5.732-.955-6.84-2.28a7.286,7.286,0,0,1-4.988-6.921V26.91a2.432,2.432,0,0,1,3.2-2.307L34.08,33.221a7.286,7.286,0,0,1,4.988,6.921v6.965a7.272,7.272,0,0,1-6.1,7.2l-5.732.955,6.84,2.28a7.286,7.286,0,0,1,4.988,6.921v6.965a7.272,7.272,0,0,1-6.1,7.2l-25.1,4.346a2.431,2.431,0,0,1-1.981-.536ZM11.92,72.4a2.424,2.424,0,0,0-2.032,2.4v2.88l22.27-3.855a2.428,2.428,0,0,0,2.047-2.4h0V68.687ZM9.989,58.133a2.427,2.427,0,0,0,1.563,1.622L27.106,64.94l7-1.166a2.427,2.427,0,0,0-1.563-1.622L16.988,56.966ZM11.92,48.085a2.424,2.424,0,0,0-2.032,2.4v2.736l22.284-3.714a2.424,2.424,0,0,0,2.032-2.4V44.37ZM9.889,33.131a2.428,2.428,0,0,0,1.663,2.307l15.555,5.185,7-1.167a2.427,2.427,0,0,0-1.563-1.622L9.889,30.284ZM78.137,80.568A2.432,2.432,0,1,1,80.568,83,2.431,2.431,0,0,1,78.137,80.568Zm-14.488,1-2.881-5.906L55.02,72.791a2.431,2.431,0,0,1,0-4.35l5.759-2.88,2.88-5.759a2.432,2.432,0,0,1,4.35,0l2.88,5.759,5.759,2.88a2.432,2.432,0,0,1,0,4.35L70.9,75.665l-2.881,5.906a2.432,2.432,0,0,1-4.371,0Zm1.118-13.11a2.432,2.432,0,0,1-1.088,1.087l-2.135,1.067,2.135,1.067a2.432,2.432,0,0,1,1.1,1.109l1.057,2.166,1.057-2.166a2.431,2.431,0,0,1,1.1-1.109l2.135-1.067-2.135-1.067A2.432,2.432,0,0,1,66.9,68.461l-1.068-2.135ZM43.932,65.816a2.432,2.432,0,1,1,2.432,2.432A2.432,2.432,0,0,1,43.932,65.816Zm.86-7.871a2.432,2.432,0,0,1-.86-1.855V50.483a7.272,7.272,0,0,1,6.1-7.2l5.732-.955-6.84-2.28a7.286,7.286,0,0,1-4.988-6.921V26.167a7.272,7.272,0,0,1,6.1-7.2l5.732-.955-6.84-2.28a7.286,7.286,0,0,1-4.988-6.921V2.432a2.432,2.432,0,0,1,3.214-2.3L73,8.909a7.281,7.281,0,0,1,4.975,6.916V22.79a7.272,7.272,0,0,1-6.1,7.2l-5.732.955,6.84,2.28a7.286,7.286,0,0,1,4.988,6.921v6.965a7.272,7.272,0,0,1-6.1,7.2L46.763,58.488a2.432,2.432,0,0,1-1.972-.543Zm6.035-9.861a2.424,2.424,0,0,0-2.032,2.4v2.736l22.284-3.714a2.424,2.424,0,0,0,2.032-2.4V44.37ZM48.895,33.817a2.427,2.427,0,0,0,1.563,1.622l15.555,5.185,7-1.167a2.427,2.427,0,0,0-1.563-1.622L55.894,32.65Zm1.932-10.049a2.424,2.424,0,0,0-2.032,2.4V28.9l22.284-3.714a2.424,2.424,0,0,0,2.032-2.4V20.054ZM48.795,8.815a2.428,2.428,0,0,0,1.663,2.307l15.555,5.185,7-1.167a2.427,2.427,0,0,0-1.563-1.622L48.795,5.826ZM29.616,27.772l-2.88-5.759-5.759-2.88a2.431,2.431,0,0,1,0-4.35l5.759-2.88,2.88-5.759a2.432,2.432,0,0,1,4.35,0l2.88,5.759,5.759,2.88a2.432,2.432,0,0,1,0,4.35l-5.759,2.88-2.88,5.759a2.432,2.432,0,0,1-4.35,0ZM30.723,14.8a2.431,2.431,0,0,1-1.087,1.087L27.5,16.958l2.135,1.067a2.432,2.432,0,0,1,1.087,1.087l1.067,2.135,1.067-2.135a2.431,2.431,0,0,1,1.088-1.087l2.135-1.067L33.946,15.89A2.431,2.431,0,0,1,32.858,14.8l-1.067-2.135ZM0,17.184a2.432,2.432,0,1,1,2.432,2.432A2.432,2.432,0,0,1,0,17.184ZM9.889,12.32V9.889H7.457a2.432,2.432,0,1,1,0-4.863H9.889V2.432a2.432,2.432,0,1,1,4.863,0V5.025h2.432a2.432,2.432,0,0,1,0,4.863H14.752V12.32a2.432,2.432,0,1,1-4.863,0Z" transform="translate(1 1.019)" fill="none" stroke="#ffdd36" stroke-width="2" opacity="0.8"/>
</svg>
