<svg xmlns="http://www.w3.org/2000/svg" width="102.07" height="102" viewBox="0 0 102.07 102">
  <path id="Path_189" data-name="Path 189" d="M99.691,95.76l-5.55-11.1V50.2a2.93,2.93,0,0,0-2.93-2.93H76.367V32.617a2.93,2.93,0,0,0-2.93-2.93H64.649V23.828h2.93a2.93,2.93,0,0,0,2.094-4.979L52.094.881a2.93,2.93,0,0,0-4.188,0L30.328,18.85a2.93,2.93,0,0,0,2.094,4.978h2.93v5.859H26.563a2.93,2.93,0,0,0-2.93,2.93V47.266H8.789a2.93,2.93,0,0,0-2.93,2.93V84.66L.309,95.76A2.93,2.93,0,0,0,2.93,100H97.07a2.93,2.93,0,0,0,2.62-4.24ZM82.227,53.125h6.055v29.3H82.227ZM50,7.119l10.614,10.85H39.386Zm0,22.568a2.93,2.93,0,0,0-2.93,2.93v2.93H41.211V23.828H58.789V35.547H52.93v-2.93A2.93,2.93,0,0,0,50,29.688ZM29.492,35.547h5.859v2.93a2.93,2.93,0,0,0,2.93,2.93H61.719a2.93,2.93,0,0,0,2.93-2.93v-2.93h5.859V47.266h-2.93a2.93,2.93,0,0,0-2.93,2.93v8.789H58.789V50.2a2.93,2.93,0,0,0-2.93-2.93H44.141a2.93,2.93,0,0,0-2.93,2.93v8.789H35.352V50.2a2.93,2.93,0,0,0-2.93-2.93h-2.93ZM11.719,53.125h6.055v29.3H11.719ZM36.471,94.141H7.67l2.93-5.859H39.4Zm6.551,0,2.93-5.859h8.1l2.93,5.859ZM47.07,82.422V76.563H52.93v5.859ZM55.859,70.7H44.141a2.93,2.93,0,0,0-2.93,2.93v8.789H23.633v-29.3h5.859v8.789a2.93,2.93,0,0,0,2.93,2.93H44.141a2.93,2.93,0,0,0,2.93-2.93V53.125H52.93v8.789a2.93,2.93,0,0,0,2.93,2.93H67.578a2.93,2.93,0,0,0,2.93-2.93V53.125h5.859v29.3H58.789V73.633A2.93,2.93,0,0,0,55.859,70.7Zm7.67,23.438L60.6,88.281H89.4l2.93,5.859Z" transform="translate(1.035 1)" fill="none" stroke="#ffdd36" stroke-width="2" opacity="0.8"/>
</svg>
