<svg xmlns="http://www.w3.org/2000/svg" width="102" height="102" viewBox="0 0 102 102">
  <path id="Union_33" data-name="Union 33" d="M26.563,100a2.929,2.929,0,0,1-2.817-3.731L34.4,58.789H14.649A14.665,14.665,0,0,1,0,44.141a2.963,2.963,0,0,1,1.106-2.294l28.437-22.6a20.494,20.494,0,0,1,40.912,0l28.438,22.6A2.947,2.947,0,0,1,100,44.116c0,.009,0,.016,0,.025A14.665,14.665,0,0,1,85.351,58.789H65.6l10.658,37.48A2.929,2.929,0,0,1,73.438,100ZM52.93,91.211v2.93H69.559L59.506,58.789H52.93v2.93a2.93,2.93,0,0,1-5.86,0v-2.93H40.494L30.441,94.141H47.07v-2.93a2.93,2.93,0,0,1,5.86,0ZM14.649,52.93h70.7a8.822,8.822,0,0,0,8.287-5.879H6.361A8.822,8.822,0,0,0,14.649,52.93ZM11.325,41.211h77.35L66.556,23.632H33.444ZM35.64,17.774H64.361a14.612,14.612,0,0,0-28.721,0ZM47.07,79.493V73.438a2.93,2.93,0,0,1,5.86,0v6.055a2.93,2.93,0,0,1-5.86,0Zm17.573-47.07a2.93,2.93,0,1,1,2.93,2.929A2.929,2.929,0,0,1,64.643,32.423Zm-17.577,0a2.929,2.929,0,1,1,2.929,2.929A2.929,2.929,0,0,1,47.065,32.423Zm-17.579,0a2.93,2.93,0,1,1,2.93,2.929A2.929,2.929,0,0,1,29.486,32.423Z" transform="translate(1 1)" fill="none" stroke="#ffdd36" stroke-width="2" opacity="0.8"/>
</svg>
