<svg xmlns="http://www.w3.org/2000/svg" width="89.901" height="102.168" viewBox="0 0 89.901 102.168">
  <path id="Union_32" data-name="Union 32" d="M8.79,100a2.93,2.93,0,0,1-1.758-5.274,8.057,8.057,0,0,0,0-12.892,2.919,2.919,0,0,1-.677-.72A11.717,11.717,0,0,1,11.72,58.98H26.465a14.813,14.813,0,0,1-3.024-8.985V32.414a2.93,2.93,0,0,1,2.93-2.93h38.09a11.72,11.72,0,1,1,0,23.44h-.29a14.81,14.81,0,0,1-2.735,6.056H79.111a2.93,2.93,0,0,1,1.758,5.274,8.058,8.058,0,0,0,0,12.892,2.919,2.919,0,0,1,.677.719A11.717,11.717,0,0,1,76.181,100Zm7.325-11.72a13.913,13.913,0,0,1-1.279,5.86H76.181a5.86,5.86,0,0,0,0-11.72H64.461v2.93a2.93,2.93,0,0,1-5,2.072l-3.788-3.788-3.788,3.788a2.93,2.93,0,0,1-5-2.072V82.42H14.836A13.911,13.911,0,0,1,16.115,88.28ZM57.742,77.418l.858.859V64.84H52.74V78.276l.858-.859a2.93,2.93,0,0,1,4.144,0Zm6.719-.857h8.6a14.113,14.113,0,0,1,0-11.74h-8.6ZM5.86,70.7a5.867,5.867,0,0,0,5.86,5.86H46.881V64.84H11.72A5.867,5.867,0,0,0,5.86,70.7ZM29.3,49.994a9.008,9.008,0,0,0,8.79,8.985h11.72a9.008,9.008,0,0,0,8.79-8.985V35.344H29.3Zm35.16-2.93a5.86,5.86,0,1,0,0-11.72ZM42.8,23.32a7.884,7.884,0,0,1-4.768-6.97A7.884,7.884,0,0,1,42.8,9.38a2.3,2.3,0,0,0,1.5-1.912,2.3,2.3,0,0,0-1.5-1.911A2.93,2.93,0,1,1,45.395.3a8.019,8.019,0,0,1,4.768,7.165,8.02,8.02,0,0,1-4.768,7.165c-.942.465-1.5,1.107-1.5,1.716s.562,1.251,1.5,1.716a2.93,2.93,0,1,1-2.6,5.254Zm-14.65,0a7.884,7.884,0,0,1-4.768-6.97,7.884,7.884,0,0,1,4.768-6.97,2.3,2.3,0,0,0,1.5-1.912,2.3,2.3,0,0,0-1.5-1.911A2.93,2.93,0,1,1,30.745.3a8.019,8.019,0,0,1,4.768,7.165,8.02,8.02,0,0,1-4.768,7.165c-.942.465-1.5,1.107-1.5,1.716s.562,1.251,1.5,1.716a2.93,2.93,0,1,1-2.6,5.254Zm29.3,0a7.885,7.885,0,0,1-4.768-6.97,7.885,7.885,0,0,1,4.768-6.97,2.3,2.3,0,0,0,1.5-1.911,2.3,2.3,0,0,0-1.5-1.911A2.93,2.93,0,1,1,60.045.3a8.02,8.02,0,0,1,4.768,7.165,8.02,8.02,0,0,1-4.768,7.165c-.942.465-1.5,1.107-1.5,1.716s.562,1.251,1.5,1.716a2.93,2.93,0,1,1-2.6,5.254Z" transform="translate(1 1.168)" fill="none" stroke="#ffdd36" stroke-width="2" opacity="0.8"/>
</svg>
