<svg xmlns="http://www.w3.org/2000/svg" width="145" height="145.014" viewBox="0 0 145 145.014">
  <g id="balloons" transform="translate(1 1)">
    <g id="Group_182" data-name="Group 182" transform="translate(50.583 24.52)">
      <g id="Group_181" data-name="Group 181">
        <path id="Path_115" data-name="Path 115" d="M222.877,103.125a4.19,4.19,0,0,0-3.349-2.89l-9.406-1.477-4.115-8.586a4.189,4.189,0,0,0-7.513-.087l-4.312,8.489-9.437,1.26a4.19,4.19,0,0,0-2.4,7.119l6.741,6.724-1.717,9.365a4.189,4.189,0,0,0,6.027,4.486l8.478-4.333,8.376,4.527a4.19,4.19,0,0,0,6.129-4.346l-1.5-9.4,6.894-6.567A4.191,4.191,0,0,0,222.877,103.125Zm-15.378,6.3a4.189,4.189,0,0,0-1.248,3.694l.51,3.194-2.846-1.538a4.189,4.189,0,0,0-3.9-.045l-2.88,1.472.583-3.182a4.19,4.19,0,0,0-1.162-3.722l-2.29-2.285,3.206-.428a4.189,4.189,0,0,0,3.181-2.255l1.465-2.884,1.4,2.917a4.189,4.189,0,0,0,3.128,2.328l3.2.5Z" transform="translate(-181.11 -87.793)" fill="none" stroke="#ffdd36" stroke-width="2"/>
      </g>
    </g>
    <g id="Group_184" data-name="Group 184" transform="translate(0)">
      <g id="Group_183" data-name="Group 183">
        <path id="Path_116" data-name="Path 116" d="M132.026,135.062l-1.769-.885a23.233,23.233,0,0,1-12.291-16.595h3.808a4.189,4.189,0,0,0,4.132-4.878l-2.455-14.729C135.026,91.25,143,73.7,143,59.978c0-17.9-13.281-32.468-29.605-32.468a26.71,26.71,0,0,0-6.3.75C101.942,11.822,87.933,0,71.5,0S41.057,11.822,35.906,28.26a26.7,26.7,0,0,0-6.3-.75C13.281,27.51,0,42.076,0,59.979c0,13.981,8.154,31.377,19.549,38l-2.455,14.729a4.189,4.189,0,0,0,4.132,4.878H25.7A31.716,31.716,0,0,0,42.72,141.672l1.769.885a4.19,4.19,0,1,0,3.747-7.494l-1.769-.885a23.233,23.233,0,0,1-12.291-16.595h3.807a4.189,4.189,0,0,0,4.132-4.878L39.656,97.939c5.125-3.033,9.358-8.114,12.461-13.563a33.727,33.727,0,0,0,9.206,5.949l-2.334,14a4.189,4.189,0,0,0,4.132,4.878h4.189v2.211a34.994,34.994,0,0,0,19.074,31.141,4.19,4.19,0,1,0,3.747-7.494,26.552,26.552,0,0,1-14.442-23.646V109.2h4.189a4.189,4.189,0,0,0,4.132-4.878l-2.333-14a33.715,33.715,0,0,0,9.206-5.949c3.1,5.449,7.336,10.529,12.461,13.563l-2.461,14.766a4.189,4.189,0,0,0,4.132,4.878h4.473a31.716,31.716,0,0,0,17.021,24.089l1.769.885a4.189,4.189,0,1,0,3.747-7.494ZM26.172,109.2l1.415-8.494a17.879,17.879,0,0,0,4.036,0l1.415,8.493Zm3.433-16.758c-10.829,0-21.227-18.522-21.227-32.468C8.379,46.7,17.9,35.89,29.605,35.89a18.337,18.337,0,0,1,4.537.572,47.282,47.282,0,0,0-.347,5.712c0,11.679,4.4,25.28,12.312,35.66C41.776,86.785,35.457,92.447,29.605,92.447Zm38.461,8.379,1.411-8.464c.672.055,1.346.085,2.023.085s1.351-.03,2.023-.085l1.411,8.464ZM71.5,84.068c-15.825,0-29.326-23.1-29.326-41.894C42.174,23.555,55.32,8.379,71.5,8.379s29.326,15.174,29.326,33.795C100.826,61.022,87.292,84.068,71.5,84.068Zm25.393-6.235c7.916-10.379,12.312-23.979,12.312-35.66a47.283,47.283,0,0,0-.347-5.712,18.335,18.335,0,0,1,4.537-.572c11.7,0,21.227,10.807,21.227,24.089,0,13.963-10.41,32.468-21.227,32.468C107.542,92.447,101.222,86.785,96.893,77.833ZM109.961,109.2l1.415-8.493a17.879,17.879,0,0,0,4.036,0l1.415,8.494Z" transform="translate(0)" fill="none" stroke="#ffdd36" stroke-width="2"/>
      </g>
    </g>
  </g>
</svg>
