<svg xmlns="http://www.w3.org/2000/svg" width="179.051" height="156.667" viewBox="0 0 179.051 156.667">
  <g id="blower" transform="translate(1.056 1)">
    <g id="Group_172" data-name="Group 172" transform="translate(0 19.603)">
      <g id="Group_171" data-name="Group 171">
        <path id="Path_112" data-name="Path 112" d="M129.78,89a38.848,38.848,0,0,0-38.8,38.8,32.111,32.111,0,0,0,32.075,32.075,26.721,26.721,0,0,0,26.691-26.691,22.409,22.409,0,0,0-22.383-22.383,18.959,18.959,0,0,0-18.938,18.938,5.155,5.155,0,0,0,10.311,0,8.637,8.637,0,0,1,8.627-8.627,12.086,12.086,0,0,1,12.072,12.072,16.4,16.4,0,0,1-16.38,16.38,21.788,21.788,0,0,1-21.764-21.763,28.525,28.525,0,0,1,28.493-28.493,36.947,36.947,0,0,1,36.9,36.9c0,25.887-21.273,46.947-47.421,46.947H103.8v-5.5a5.156,5.156,0,0,0-5.155-5.156H83.176v-5.155A5.155,5.155,0,0,0,78.02,162.2H57.4a5.155,5.155,0,0,0-5.155,5.155v5.155H5.156a5.156,5.156,0,0,0-4.611,7.461l10.311,20.622a5.155,5.155,0,0,0,4.612,2.85H52.244V208.6a5.156,5.156,0,0,0,5.156,5.156H78.021a5.155,5.155,0,0,0,5.155-5.156v-5.155H98.643a5.155,5.155,0,0,0,5.155-5.155v-4.812h15.466c31.677,0,57.731-25.142,57.731-57.258A47.27,47.27,0,0,0,129.78,89ZM52.243,193.133H18.653L13.5,182.822H52.243v10.311Zm20.622,10.311H62.554V172.511H72.865Zm20.622-10.311H83.176V182.822H93.487Z" transform="translate(-0.001 -89.002)" fill="none" stroke="#ffdd36" stroke-width="2"/>
      </g>
    </g>
    <g id="Group_174" data-name="Group 174" transform="translate(52.242 41.246)">
      <g id="Group_173" data-name="Group 173">
        <path id="Path_113" data-name="Path 113" d="M176.9,161.92h-5.155v-5.155a5.155,5.155,0,0,0-10.311,0v5.155H156.28a5.155,5.155,0,1,0,0,10.311h5.155v5.156a5.155,5.155,0,0,0,10.311,0V172.23H176.9a5.155,5.155,0,1,0,0-10.311Z" transform="translate(-151.124 -151.609)" fill="none" stroke="#ffdd36" stroke-width="2"/>
      </g>
    </g>
    <g id="Group_176" data-name="Group 176" transform="translate(83.175 0)">
      <g id="Group_175" data-name="Group 175">
        <circle id="Ellipse_40" data-name="Ellipse 40" cx="5.155" cy="5.155" r="5.155" fill="none" stroke="#ffdd36" stroke-width="2"/>
      </g>
    </g>
    <g id="Group_178" data-name="Group 178" transform="translate(155.352 0)">
      <g id="Group_177" data-name="Group 177">
        <circle id="Ellipse_41" data-name="Ellipse 41" cx="5.155" cy="5.155" r="5.155" fill="none" stroke="#ffdd36" stroke-width="2"/>
      </g>
    </g>
    <g id="Group_180" data-name="Group 180" transform="translate(145.041 123.734)">
      <g id="Group_179" data-name="Group 179">
        <path id="Path_114" data-name="Path 114" d="M435.032,390.224A15.466,15.466,0,1,0,450.5,405.69,15.484,15.484,0,0,0,435.032,390.224Zm0,20.622a5.156,5.156,0,1,1,5.155-5.156A5.162,5.162,0,0,1,435.032,410.846Z" transform="translate(-419.566 -390.224)" fill="none" stroke="#ffdd36" stroke-width="2"/>
      </g>
    </g>
  </g>
</svg>
