<svg xmlns="http://www.w3.org/2000/svg" width="136.108" height="136.016" viewBox="0 0 136.108 136.016">
  <g id="cupcake" transform="translate(1.025 1)">
    <g id="Group_227" data-name="Group 227" transform="translate(0 0)">
      <g id="Group_226" data-name="Group 226">
        <path id="Path_130" data-name="Path 130" d="M133.711,66.81a24.252,24.252,0,0,0-21.093-19.444c-4.941-8.277-12.962-15.016-22.709-19.16,2.907-3.652,4.6-7.432,4.6-11.9,0-9.1-6.9-16.221-15.705-16.221a14.9,14.9,0,0,0-11.779,5.7A14.9,14.9,0,0,0,55.25.082C46.444.082,39.545,7.207,39.545,16.3c0,4.473,1.7,8.253,4.6,11.9C34.4,32.35,26.381,39.09,21.44,47.367A24.252,24.252,0,0,0,.348,66.81c-2.094,11.4,5.5,22.626,16.6,26.707l13.2,32.654A11.764,11.764,0,0,0,41.279,134.1h51.5a11.763,11.763,0,0,0,11.131-7.926l13.2-32.654C128.215,89.435,135.8,78.2,133.711,66.81ZM55.251,7.934c5.815,0,7.913,6.67,8.012,7a3.922,3.922,0,0,0,7.533,0c.086-.286,2.178-7,8.012-7,5.1,0,7.852,4.312,7.852,8.368,0,6.652-8,12.337-19.631,21.875C55.4,28.641,47.4,22.955,47.4,16.3,47.4,12.245,50.15,7.934,55.251,7.934ZM41.28,126.245a3.921,3.921,0,0,1-3.725-2.685c-.026-.078-.054-.154-.085-.23L24.6,91.5a18.284,18.284,0,0,1,23.05.829l5.16,33.919H41.28Zm32.028,0H60.751L55.523,91.881a18.284,18.284,0,0,1,23.012,0Zm23.282-2.915q-.046.114-.085.23a3.921,3.921,0,0,1-3.725,2.685H81.251l5.16-33.92a18.284,18.284,0,0,1,23.05-.829ZM115.041,85.9a26.153,26.153,0,0,0-32.306-.708,26.161,26.161,0,0,0-31.41,0,26.153,26.153,0,0,0-32.306.708C11.527,82.842,6.771,75.3,8.071,68.23c1.346-7.324,8.163-12.988,15.856-13.175a3.927,3.927,0,0,0,3.382-2.1c4.383-8.363,12.613-15.067,22.779-18.629,3.984,3.57,8.8,7.276,14.428,11.965a3.926,3.926,0,0,0,5.027,0c5.626-4.688,10.444-8.4,14.428-11.965,10.166,3.563,18.4,10.266,22.779,18.629a3.927,3.927,0,0,0,3.382,2.1c7.694.187,14.511,5.851,15.856,13.175C127.288,75.3,122.532,82.842,115.041,85.9Z" transform="translate(0 -0.082)" fill="none" stroke="#ffdd36" stroke-width="2"/>
      </g>
    </g>
    <g id="Group_229" data-name="Group 229" transform="translate(39.545 54.966)">
      <g id="Group_228" data-name="Group 228">
        <path id="Path_131" data-name="Path 131" d="M172.418,218.279l-15.705-7.852a3.926,3.926,0,0,0-3.512,7.024l15.705,7.852a3.926,3.926,0,0,0,3.512-7.024Z" transform="translate(-151.03 -210.011)" fill="none" stroke="#ffdd36" stroke-width="2"/>
      </g>
    </g>
    <g id="Group_231" data-name="Group 231" transform="translate(86.661 54.968)">
      <g id="Group_230" data-name="Group 230">
        <path id="Path_132" data-name="Path 132" d="M345.532,211.165a3.926,3.926,0,0,0-5.552,0l-7.852,7.852a3.926,3.926,0,0,0,5.552,5.552l7.852-7.852A3.926,3.926,0,0,0,345.532,211.165Z" transform="translate(-330.977 -210.015)" fill="none" stroke="#ffdd36" stroke-width="2"/>
      </g>
    </g>
    <g id="Group_233" data-name="Group 233" transform="translate(23.841 62.819)">
      <g id="Group_232" data-name="Group 232">
        <circle id="Ellipse_50" data-name="Ellipse 50" cx="3.926" cy="3.926" r="3.926" fill="none" stroke="#ffdd36" stroke-width="2"/>
      </g>
    </g>
    <g id="Group_235" data-name="Group 235" transform="translate(70.956 54.967)">
      <g id="Group_234" data-name="Group 234">
        <circle id="Ellipse_51" data-name="Ellipse 51" cx="3.926" cy="3.926" r="3.926" fill="none" stroke="#ffdd36" stroke-width="2"/>
      </g>
    </g>
    <g id="Group_237" data-name="Group 237" transform="translate(110.218 70.672)">
      <g id="Group_236" data-name="Group 236">
        <circle id="Ellipse_52" data-name="Ellipse 52" cx="3.926" cy="3.926" r="3.926" fill="none" stroke="#ffdd36" stroke-width="2"/>
      </g>
    </g>
  </g>
</svg>
