<svg xmlns="http://www.w3.org/2000/svg" width="104.77" height="136.929" viewBox="0 0 104.77 136.929">
  <g id="birthday-card" transform="translate(1 1.01)">
    <g id="Group_213" data-name="Group 213" transform="translate(0 0)">
      <g id="Group_212" data-name="Group 212">
        <path id="Path_125" data-name="Path 125" d="M159.818,15.811h-3.953V3.953a3.954,3.954,0,0,0-4.66-3.889L64.246,15.875A3.963,3.963,0,0,0,61,19.754s0,.006,0,.009v111.2a3.953,3.953,0,0,0,3.953,3.953h94.864a3.953,3.953,0,0,0,3.953-3.953V19.764A3.953,3.953,0,0,0,159.818,15.811ZM147.96,8.689v7.122H108.79Zm7.905,118.324H68.906V23.716h86.959v103.3Z" transform="translate(-61.001 0.001)" fill="none" stroke="#ffdd36" stroke-width="2"/>
      </g>
    </g>
    <g id="Group_215" data-name="Group 215" transform="translate(15.811 31.622)">
      <g id="Group_214" data-name="Group 214">
        <path id="Path_126" data-name="Path 126" d="M191.9,170.069a12.835,12.835,0,0,0-7.654-9.305V155.84a11.81,11.81,0,0,0-3.029-7.905,11.808,11.808,0,0,0,3.029-7.905c0-4.881-5.847-14.235-8.582-18.286a3.953,3.953,0,0,0-6.552,0c-2.735,4.052-8.582,13.4-8.582,18.286a11.81,11.81,0,0,0,3.029,7.905,11.808,11.808,0,0,0-3.029,7.905v3.953h-7.905V155.84a11.81,11.81,0,0,0-3.029-7.905,11.808,11.808,0,0,0,3.029-7.905c0-4.881-5.847-14.235-8.582-18.286a3.953,3.953,0,0,0-6.552,0c-2.735,4.052-8.582,13.4-8.582,18.286a11.81,11.81,0,0,0,3.029,7.905,11.809,11.809,0,0,0-3.029,7.905v4.925A12.81,12.81,0,0,0,121,172.584v30.952a3.953,3.953,0,0,0,3.953,3.953H188.2a3.953,3.953,0,0,0,3.953-3.953V171.651A6.881,6.881,0,0,0,191.9,170.069Zm-19.512-38.674c2.277,3.915,3.919,7.418,3.952,8.637a3.953,3.953,0,0,1-7.905,0C168.464,138.819,170.108,135.314,172.386,131.395Zm-3.953,24.445a3.953,3.953,0,1,1,7.905,0v3.953h-7.905Zm-27.668-24.445c2.277,3.915,3.919,7.418,3.952,8.637a3.953,3.953,0,0,1-7.905,0C136.842,138.819,138.486,135.314,140.764,131.395Zm-3.954,24.445a3.953,3.953,0,1,1,7.905,0v3.953h-7.905Zm47.432,43.743H128.906v-8.849a11.836,11.836,0,0,0,11.858-2.347,11.834,11.834,0,0,0,15.811,0,11.831,11.831,0,0,0,15.811,0,11.831,11.831,0,0,0,11.858,2.349v8.849Zm0-20.027a3.953,3.953,0,1,1-7.905,0,3.953,3.953,0,0,0-7.905,0,3.953,3.953,0,1,1-7.905,0,3.953,3.953,0,1,0-7.905,0,3.953,3.953,0,1,1-7.905,0,3.953,3.953,0,1,0-7.905,0,3.953,3.953,0,1,1-7.905,0v-6.972h0a4.891,4.891,0,0,1,4.886-4.886h45.566a4.891,4.891,0,0,1,4.886,4.886v6.972Z" transform="translate(-121 -120.002)" fill="none" stroke="#ffdd36" stroke-width="2"/>
      </g>
    </g>
  </g>
</svg>
