<svg xmlns="http://www.w3.org/2000/svg" width="1166.432" height="391.341" viewBox="0 0 1166.432 391.341">
  <g id="Group_2403" data-name="Group 2403" transform="translate(-86.164 -4790.662)">
    <g id="meteor" transform="translate(992.255 4791.667)" opacity="0.3">
      <g id="Group_2225" data-name="Group 2225" transform="translate(0.078 -0.001)">
        <g id="Group_2224" data-name="Group 2224">
          <path id="Path_354" data-name="Path 354" d="M361.856,467.923a52.489,52.489,0,0,0,18.828.069,4.321,4.321,0,1,0-1.526-8.507,44,44,0,0,1-15.707-.06,4.323,4.323,0,1,0-1.6,8.5Z" transform="translate(-176.867 -226.68)" fill="none" stroke="#ab00ff" stroke-width="2"/>
          <path id="Path_355" data-name="Path 355" d="M422.664,432.347a4.322,4.322,0,0,0,2.364-.7A51.706,51.706,0,0,0,444.946,407.2a4.324,4.324,0,0,0-8.048-3.164,43.092,43.092,0,0,1-16.6,20.371,4.323,4.323,0,0,0,2.368,7.94Z" transform="translate(-206.481 -198.028)" fill="none" stroke="#ab00ff" stroke-width="2"/>
          <path id="Path_356" data-name="Path 356" d="M401.331,337.389a12.967,12.967,0,1,0-12.967,12.967A12.98,12.98,0,0,0,401.331,337.389Zm-12.967,4.323a4.322,4.322,0,1,1,4.322-4.322A4.327,4.327,0,0,1,388.364,341.712Z" transform="translate(-185.289 -160.094)" fill="none" stroke="#ab00ff" stroke-width="2"/>
          <path id="Path_357" data-name="Path 357" d="M315.71,215.379a4.325,4.325,0,0,0,3.281-7.136l-13.3-15.53a4.321,4.321,0,0,0-6.566,5.619l13.308,15.535A4.305,4.305,0,0,0,315.71,215.379Z" transform="translate(-147.137 -94.352)" fill="none" stroke="#ab00ff" stroke-width="2"/>
          <path id="Path_358" data-name="Path 358" d="M256.084,316.528a60.561,60.561,0,0,0,4.642,23.267,4.323,4.323,0,1,0,7.979-3.328,51.894,51.894,0,0,1-3.977-19.965c-.048-19.256,7.7-26.224,16.663-34.293,4.11-3.7,8.368-7.525,12.167-12.686,3.592-4.876,15.292-4.876,23.038-4.876,2.179,0,4.439,1.3,7.3,2.935,4.491,2.58,10.075,5.788,18.56,5.788a4.322,4.322,0,0,0,0-8.644c-6.177,0-10.283-2.356-14.255-4.638-3.5-2.01-7.119-4.085-11.6-4.085-10.049,0-23.812,0-30,8.394a76.737,76.737,0,0,1-10.992,11.385C265.982,284.448,256.023,293.4,256.084,316.528Z" transform="translate(-126.411 -126.331)" fill="none" stroke="#ab00ff" stroke-width="2"/>
          <path id="Path_359" data-name="Path 359" d="M263.686,155.744a4.322,4.322,0,1,0,6.656-5.516l-13.81-16.667a4.324,4.324,0,0,0-6.656,5.52Z" transform="translate(-122.858 -65.138)" fill="none" stroke="#ab00ff" stroke-width="2"/>
          <path id="Path_360" data-name="Path 360" d="M313.613,384.156a6.483,6.483,0,1,0,6.483,6.483A6.491,6.491,0,0,0,313.613,384.156Z" transform="translate(-151.601 -189.572)" fill="none" stroke="#ab00ff" stroke-width="2"/>
          <path id="Path_361" data-name="Path 361" d="M332.068,317.788a43.607,43.607,0,0,1,11.152-11.07,4.322,4.322,0,0,0-4.88-7.136,52.3,52.3,0,0,0-13.365,13.257,4.324,4.324,0,0,0,7.093,4.949Z" transform="translate(-160.023 -147.466)" fill="none" stroke="#ab00ff" stroke-width="2"/>
          <path id="Path_362" data-name="Path 362" d="M183.836,188.072a4.322,4.322,0,0,0,3.056-7.378l-17.281-17.276a4.322,4.322,0,1,0-6.112,6.112l17.281,17.276A4.293,4.293,0,0,0,183.836,188.072Z" transform="translate(-80.098 -80.017)" fill="none" stroke="#ab00ff" stroke-width="2"/>
          <path id="Path_363" data-name="Path 363" d="M358.484,407.552a6.483,6.483,0,1,0,6.483-6.483A6.491,6.491,0,0,0,358.484,407.552Z" transform="translate(-176.943 -197.918)" fill="none" stroke="#ab00ff" stroke-width="2"/>
          <path id="Path_364" data-name="Path 364" d="M74.269,193.562a4.322,4.322,0,0,0-5.593,6.591l18.236,15.465a4.322,4.322,0,1,0,5.593-6.591Z" transform="translate(-33.178 -95.011)" fill="none" stroke="#ab00ff" stroke-width="2"/>
          <path id="Path_365" data-name="Path 365" d="M14.325,20.355a4.322,4.322,0,0,0,6.112-6.112L7.461,1.267A4.322,4.322,0,0,0,1.349,7.379Z" transform="translate(-0.08 0.001)" fill="none" stroke="#ab00ff" stroke-width="2"/>
          <path id="Path_366" data-name="Path 366" d="M65.507,71.537a4.322,4.322,0,0,0,6.112-6.112L58.661,52.467a4.322,4.322,0,0,0-6.112,6.112Z" transform="translate(-25.346 -25.266)" fill="none" stroke="#ab00ff" stroke-width="2"/>
          <path id="Path_367" data-name="Path 367" d="M257.056,187.063a52.249,52.249,0,0,1-2.036-14.091c0-16.109-6.259-23.725-11.294-29.846-.856-1.042-1.69-2.053-2.459-3.082L137.531,1.73a4.322,4.322,0,0,0-6.916,5.187l103.736,138.31c.843,1.133,1.759,2.243,2.7,3.389,4.581,5.576,9.323,11.346,9.323,24.356a60.206,60.206,0,0,0,2.3,16.191,51.7,51.7,0,0,1,2.027,13.987,22.087,22.087,0,0,1-1.9,9.6,28.873,28.873,0,0,0-2.421,12.09c0,10-12.059,16.183-22.705,21.638l-.877.454c-7.422,3.8-20.9,3.756-30.637,3.764h-1.893c-3.873,0-7.754-2.114-11.86-4.348a54.783,54.783,0,0,0-8.437-3.989,92.394,92.394,0,0,0-9.76-2.559c-5.74-1.279-10.7-2.382-14.895-5.528L7,130.535a4.322,4.322,0,0,0-5.187,6.916L140.124,241.187c5.688,4.262,12.051,5.68,18.205,7.05a86.368,86.368,0,0,1,8.857,2.308,48.112,48.112,0,0,1,7.084,3.393c4.646,2.533,9.92,5.4,15.992,5.4h1.88c.7,0,1.422,0,2.144,0,10.87,0,23.747-.259,32.452-4.724l.873-.449c12.215-6.255,27.408-14.043,27.408-29.331a20.415,20.415,0,0,1,1.811-8.908,30.264,30.264,0,0,0,2.511-12.781A59.727,59.727,0,0,0,257.056,187.063Z" transform="translate(-0.078 0)" fill="none" stroke="#ab00ff" stroke-width="2"/>
          <path id="Path_368" data-name="Path 368" d="M1.609,144.151,20.722,160.36a4.322,4.322,0,0,0,5.594-6.591L7.2,137.559a4.322,4.322,0,0,0-5.594,6.591Z" transform="translate(-0.081 -67.376)" fill="none" stroke="#ab00ff" stroke-width="2"/>
          <path id="Path_369" data-name="Path 369" d="M140.515,249.326a4.322,4.322,0,1,0-5.671,6.522l15.9,13.818a4.322,4.322,0,1,0,5.666-6.527Z" transform="translate(-65.848 -122.512)" fill="none" stroke="#ab00ff" stroke-width="2"/>
          <path id="Path_370" data-name="Path 370" d="M192.167,305.723l15.871,13.261a4.322,4.322,0,0,0,5.541-6.634l-15.871-13.261a4.322,4.322,0,1,0-5.541,6.634Z" transform="translate(-94.103 -147.097)" fill="none" stroke="#ab00ff" stroke-width="2"/>
          <path id="Path_371" data-name="Path 371" d="M243.565,247.806a4.322,4.322,0,0,0,3.056-7.378l-17.285-17.285a4.322,4.322,0,0,0-6.112,6.112l17.285,17.285A4.311,4.311,0,0,0,243.565,247.806Z" transform="translate(-109.57 -109.49)" fill="none" stroke="#ab00ff" stroke-width="2"/>
          <path id="Path_372" data-name="Path 372" d="M154.005,26.462a4.325,4.325,0,0,0,6.6-5.584L144.241,1.531a4.325,4.325,0,0,0-6.6,5.584Z" transform="translate(-67.456 0)" fill="none" stroke="#ab00ff" stroke-width="2"/>
          <path id="Path_373" data-name="Path 373" d="M209.709,92.135a4.323,4.323,0,0,0,6.622-5.559L200.917,68.211a4.324,4.324,0,0,0-6.626,5.558Z" transform="translate(-95.419 -32.9)" fill="none" stroke="#ab00ff" stroke-width="2"/>
          <path id="Path_374" data-name="Path 374" d="M121.034,127.064a4.322,4.322,0,1,0,6.112-6.112l-17.285-17.285a4.322,4.322,0,0,0-6.112,6.112Z" transform="translate(-50.612 -50.531)" fill="none" stroke="#ab00ff" stroke-width="2"/>
        </g>
      </g>
    </g>
    <g id="rocket" transform="translate(87.184 4853.333)" opacity="0.3">
      <g id="Group_2253" data-name="Group 2253" transform="translate(34.555 12.862)">
        <g id="Group_2252" data-name="Group 2252">
          <path id="Path_388" data-name="Path 388" d="M75.751,20.1A21.757,21.757,0,1,0,97.507,41.855,21.781,21.781,0,0,0,75.751,20.1Zm0,30.715a8.958,8.958,0,1,1,8.958-8.958A8.968,8.968,0,0,1,75.751,50.813Z" transform="translate(-53.994 -20.098)" fill="none" stroke="#ab00ff" stroke-width="2"/>
        </g>
      </g>
      <g id="Group_2255" data-name="Group 2255" transform="translate(-0.001 78.64)">
        <g id="Group_2254" data-name="Group 2254">
          <path id="Path_389" data-name="Path 389" d="M248.649,130.047a6.4,6.4,0,0,0-1.862-4.915l-.053-.053a6.4,6.4,0,0,0-4.915-1.862,176.365,176.365,0,0,0-135.593,51.336L80.98,199.8a62.22,62.22,0,0,0,.433-12.077,6.412,6.412,0,0,0-6.466-6.269A62.241,62.241,0,0,0,27.3,199.578L1.874,225a6.4,6.4,0,0,0,0,9.05l35.162,35.162C11.828,299.669.584,361.613.1,364.348a6.4,6.4,0,0,0,7.539,7.4c2.689-.531,63.638-12.781,93.915-38.012l36.259,36.259a6.4,6.4,0,0,0,9.049,0l25.426-25.426A62.252,62.252,0,0,0,190.4,296.71a6.411,6.411,0,0,0-6.406-6.269h-.06a62.239,62.239,0,0,0-11.865.443l25.244-25.244A176.4,176.4,0,0,0,248.649,130.047ZM236.1,135.761a163.526,163.526,0,0,1-6.862,52.253L183.85,142.621A163.385,163.385,0,0,1,236.1,135.761ZM33.348,247.43l-8.941-8.941-.017-.017-8.941-8.942,20.9-20.9a49.443,49.443,0,0,1,32.312-14.412A49.456,49.456,0,0,1,54.25,226.528Zm-18.667,109.6c4.059-18.086,14.392-57.4,31.446-78.721l18.638,18.638-15.48,15.48a6.4,6.4,0,1,0,9.049,9.05L73.814,306l18.648,18.648C71.254,341.757,32.561,352.671,14.681,357.029ZM42.4,256.479l12.895-12.895,72.989,72.989-12.895,12.895ZM177.65,303.2a49.456,49.456,0,0,1-14.412,32.312l-20.9,20.9-8.941-8.941-.017-.017-8.941-8.941,20.9-20.9A49.436,49.436,0,0,1,177.65,303.2Zm-40.318,4.319L64.343,234.534,115.275,183.6A163.583,163.583,0,0,1,170.426,147.3l54.141,54.141a163.563,163.563,0,0,1-36.3,55.152Z" transform="translate(0.001 -122.88)" fill="none" stroke="#ab00ff" stroke-width="2"/>
        </g>
      </g>
      <g id="Group_2257" data-name="Group 2257" transform="translate(101.085 147.511)">
        <g id="Group_2256" data-name="Group 2256">
          <path id="Path_390" data-name="Path 390" d="M225.038,241.99a39.309,39.309,0,1,0,0,55.591A39.355,39.355,0,0,0,225.038,241.99Zm-34.195,53.532a26.524,26.524,0,0,1,0-51.472Zm25.145-6.99a26.342,26.342,0,0,1-12.347,6.99V244.05a26.518,26.518,0,0,1,12.347,44.481Z" transform="translate(-157.952 -230.495)" fill="none" stroke="#ab00ff" stroke-width="2"/>
        </g>
      </g>
      <g id="Group_2259" data-name="Group 2259" transform="translate(31.636 282.085)">
        <g id="Group_2258" data-name="Group 2258">
          <path id="Path_391" data-name="Path 391" d="M60.356,442.649a6.394,6.394,0,1,0,1.875,4.524A6.448,6.448,0,0,0,60.356,442.649Z" transform="translate(-49.433 -440.774)" fill="none" stroke="#ab00ff" stroke-width="2"/>
        </g>
      </g>
      <g id="Group_2261" data-name="Group 2261" transform="translate(251.479)">
        <g id="Group_2260" data-name="Group 2260">
          <path id="Path_392" data-name="Path 392" d="M431.024,0A38.073,38.073,0,1,0,469.1,38.073,38.117,38.117,0,0,0,431.024,0Zm0,63.349A25.276,25.276,0,1,1,456.3,38.073,25.3,25.3,0,0,1,431.024,63.349Z" transform="translate(-392.951)" fill="none" stroke="#ab00ff" stroke-width="2"/>
        </g>
      </g>
      <g id="Group_2263" data-name="Group 2263" transform="translate(182.05 31.675)">
        <g id="Group_2262" data-name="Group 2262">
          <path id="Path_393" data-name="Path 393" d="M338.574,49.494h-47.71a6.4,6.4,0,0,0,0,12.8h47.71a6.4,6.4,0,1,0,0-12.8Z" transform="translate(-284.465 -49.494)" fill="none" stroke="#ab00ff" stroke-width="2"/>
        </g>
      </g>
      <g id="Group_2265" data-name="Group 2265" transform="translate(157.413 31.674)">
        <g id="Group_2264" data-name="Group 2264">
          <path id="Path_394" data-name="Path 394" d="M256.891,51.368a6.393,6.393,0,1,0,1.876,4.524A6.444,6.444,0,0,0,256.891,51.368Z" transform="translate(-245.968 -49.493)" fill="none" stroke="#ab00ff" stroke-width="2"/>
        </g>
      </g>
      <g id="Group_2267" data-name="Group 2267" transform="translate(142.353)">
        <g id="Group_2266" data-name="Group 2266">
          <path id="Path_395" data-name="Path 395" d="M285.846,0H228.834a6.4,6.4,0,0,0,0,12.8h57.012a6.4,6.4,0,0,0,0-12.8Z" transform="translate(-222.435)" fill="none" stroke="#ab00ff" stroke-width="2"/>
        </g>
      </g>
      <g id="Group_2269" data-name="Group 2269" transform="translate(218.352 218.349)">
        <g id="Group_2268" data-name="Group 2268">
          <path id="Path_396" data-name="Path 396" d="M446.156,345.491c-4.5-4.505-13.887-7.753-33.009,2.349a6.469,6.469,0,0,0-1.032.682A50.015,50.015,0,0,0,348.621,412.4a6.373,6.373,0,0,0-1.271,1.7c-9.515,18.52-6.261,27.659-1.857,32.063,3.007,3.007,6.948,4.349,11.528,4.348,6.558,0,14.424-2.757,22.722-7.309a50.008,50.008,0,0,0,63.453-63.45C450.927,365.65,453.471,352.805,446.156,345.491ZM354.543,437.1c-.785-.785-1.117-4.375,1.439-11.057a50.447,50.447,0,0,0,9.62,9.62C358.905,438.226,355.318,437.879,354.543,437.1Zm24.188-8.215a37.229,37.229,0,1,1,50.161-50.161,174.9,174.9,0,0,1-50.161,50.161Zm17.094,4.171c-.194,0-.385-.011-.579-.015a197.877,197.877,0,0,0,37.8-37.8c0,.193.014.383.014.575A37.281,37.281,0,0,1,395.825,433.061ZM435.67,365.6a50.457,50.457,0,0,0-9.623-9.623c6.667-2.555,10.261-2.238,11.06-1.437C437.882,355.316,438.23,358.9,435.67,365.6Z" transform="translate(-341.189 -341.183)" fill="none" stroke="#ab00ff" stroke-width="2"/>
        </g>
      </g>
      <g id="Group_2271" data-name="Group 2271" transform="translate(272.995 157.414)">
        <g id="Group_2270" data-name="Group 2270">
          <path id="Path_397" data-name="Path 397" d="M474.8,245.969H432.97a6.4,6.4,0,1,0,0,12.8H474.8a6.4,6.4,0,0,0,0-12.8Z" transform="translate(-426.571 -245.969)" fill="none" stroke="#ab00ff" stroke-width="2"/>
        </g>
      </g>
      <g id="Group_2273" data-name="Group 2273" transform="translate(57.35 75.507)">
        <g id="Group_2272" data-name="Group 2272">
          <path id="Path_398" data-name="Path 398" d="M137.846,117.985H96.013a6.4,6.4,0,1,0,0,12.8h41.833a6.4,6.4,0,1,0,0-12.8Z" transform="translate(-89.614 -117.985)" fill="none" stroke="#ab00ff" stroke-width="2"/>
        </g>
      </g>
      <g id="Group_2275" data-name="Group 2275" transform="translate(13.449 75.507)">
        <g id="Group_2274" data-name="Group 2274">
          <path id="Path_399" data-name="Path 399" d="M48.332,117.985H27.415a6.4,6.4,0,1,0,0,12.8H48.332a6.4,6.4,0,1,0,0-12.8Z" transform="translate(-21.016 -117.985)" fill="none" stroke="#ab00ff" stroke-width="2"/>
        </g>
      </g>
    </g>
  </g>
</svg>
