<svg xmlns="http://www.w3.org/2000/svg" width="1179.554" height="326.985" viewBox="0 0 1179.554 326.985">
  <g id="Group_2402" data-name="Group 2402" transform="translate(-93.184 -3767.015)">
    <g id="solar-system" transform="translate(94.184 3812.184)" opacity="0.3">
      <g id="Group_2227" data-name="Group 2227" transform="translate(19.888 19.505)">
        <g id="Group_2226" data-name="Group 2226">
          <path id="Path_375" data-name="Path 375" d="M261.64,41.862c-5.776-5.776-18.006-10.524-43.463-.337a5.485,5.485,0,1,0,4.075,10.184c15.307-6.125,26.836-6.887,31.632-2.09,6.368,6.367,2.784,24.379-9.352,47.007-3.448,6.429-7.481,13.1-12.028,19.937A87.765,87.765,0,1,0,116.733,232.125a230.953,230.953,0,0,1-23.639,13.87,26.557,26.557,0,0,0-45.477,1.349c-1.674-8.876,2.817-24.172,12.755-42.406a5.485,5.485,0,0,0-9.632-5.25c-15.993,29.343-18.8,50.5-8.111,61.186a5.46,5.46,0,0,0,1.6,1.106,26.583,26.583,0,1,0,52.8-5.687,255.235,255.235,0,0,0,32.525-19.653A87.788,87.788,0,0,0,237,129.4a272.394,272.394,0,0,0,17.2-27.592C269.59,73.115,272.163,52.385,261.64,41.862ZM70.764,276.012A15.616,15.616,0,1,1,86.38,260.395,15.634,15.634,0,0,1,70.764,276.012ZM127.587,224.6a76.8,76.8,0,1,1,97.368-97.2,443.058,443.058,0,0,1-44.821,51.966A443.591,443.591,0,0,1,127.587,224.6Zm24.548,4.022a77.122,77.122,0,0,1-10.61-.737,465.962,465.962,0,0,0,46.366-40.76,466.5,466.5,0,0,0,40.33-45.765,76.8,76.8,0,0,1-76.086,87.262Z" transform="translate(-36.261 -35.562)" fill="none" stroke="#ab00ff" stroke-width="2"/>
        </g>
      </g>
      <g id="Group_2229" data-name="Group 2229" transform="translate(179.23 34.224)">
        <g id="Group_2228" data-name="Group 2228">
          <path id="Path_376" data-name="Path 376" d="M337.286,65.23a5.486,5.486,0,0,0-7.454-2.145c-.046.025-.1.056-.165.093h0l-.072.041a5.484,5.484,0,1,0,5.348,9.577l.107-.06.092-.05A5.485,5.485,0,0,0,337.286,65.23Z" transform="translate(-326.783 -62.399)" fill="none" stroke="#ab00ff" stroke-width="2"/>
        </g>
      </g>
      <g id="Group_2231" data-name="Group 2231" transform="translate(190.867 190.867)">
        <g id="Group_2230" data-name="Group 2230">
          <path id="Path_377" data-name="Path 377" d="M392.974,348a44.975,44.975,0,1,0,44.975,44.974A45.025,45.025,0,0,0,392.974,348Zm0,78.98a34.005,34.005,0,1,1,34.005-34.005A34.044,34.044,0,0,1,392.974,426.98Z" transform="translate(-348 -348)" fill="none" stroke="#ab00ff" stroke-width="2"/>
        </g>
      </g>
      <g id="Group_2233" data-name="Group 2233" transform="translate(240.23 105.306)">
        <g id="Group_2232" data-name="Group 2232">
          <path id="Path_378" data-name="Path 378" d="M458.293,192a20.293,20.293,0,1,0,20.293,20.293A20.316,20.316,0,0,0,458.293,192Zm0,29.617a9.324,9.324,0,1,1,9.324-9.324A9.334,9.334,0,0,1,458.293,221.617Z" transform="translate(-438 -192)" fill="none" stroke="#ab00ff" stroke-width="2"/>
        </g>
      </g>
      <g id="Group_2235" data-name="Group 2235">
        <g id="Group_2234" data-name="Group 2234">
          <path id="Path_379" data-name="Path 379" d="M34.005,0A34.005,34.005,0,1,0,68.01,34.005,34.044,34.044,0,0,0,34.005,0Zm0,57.041A23.036,23.036,0,1,1,57.041,34.005,23.062,23.062,0,0,1,34.005,57.041Z" fill="none" stroke="#ab00ff" stroke-width="2"/>
        </g>
      </g>
      <g id="Group_2237" data-name="Group 2237" transform="translate(130.167 74.261)">
        <g id="Group_2236" data-name="Group 2236">
          <path id="Path_380" data-name="Path 380" d="M242.922,135.4h-.11a5.485,5.485,0,0,0,0,10.969h.11a5.485,5.485,0,1,0,0-10.969Z" transform="translate(-237.328 -135.397)" fill="none" stroke="#ab00ff" stroke-width="2"/>
        </g>
      </g>
      <g id="Group_2239" data-name="Group 2239" transform="translate(74.261 78.836)">
        <g id="Group_2238" data-name="Group 2238">
          <path id="Path_381" data-name="Path 381" d="M179.721,147.049a5.484,5.484,0,0,0-7.211-2.858A61.488,61.488,0,0,0,135.4,200.664a5.485,5.485,0,0,0,10.969,0,50.526,50.526,0,0,1,30.5-46.4A5.484,5.484,0,0,0,179.721,147.049Z" transform="translate(-135.397 -143.738)" fill="none" stroke="#ab00ff" stroke-width="2"/>
        </g>
      </g>
    </g>
    <g id="falling-star" transform="matrix(0.07, 0.998, -0.998, 0.07, 1249.587, 3755.016)" opacity="0.3">
      <g id="Group_2241" data-name="Group 2241" transform="translate(0 188.222)">
        <g id="Group_2240" data-name="Group 2240">
          <path id="Path_382" data-name="Path 382" d="M133.769,353.128a6.181,6.181,0,0,0-4.988-4.206L89.944,343.28,72.576,308.087a6.178,6.178,0,0,0-11.08,0L44.128,343.28,5.291,348.923a6.179,6.179,0,0,0-3.424,10.539l28.1,27.394-6.634,38.68a6.179,6.179,0,0,0,8.964,6.513l34.737-18.263,34.738,18.263a6.179,6.179,0,0,0,8.963-6.514l-6.634-38.68,28.1-27.393A6.177,6.177,0,0,0,133.769,353.128ZM93.153,380.273a6.178,6.178,0,0,0-1.777,5.469l5.067,29.543L69.911,401.337a6.177,6.177,0,0,0-5.749,0L37.631,415.286,42.7,385.743a6.178,6.178,0,0,0-1.777-5.469L19.457,359.352l29.663-4.31a6.181,6.181,0,0,0,4.652-3.38l13.265-26.879L80.3,351.661a6.179,6.179,0,0,0,4.641,3.378l29.674,4.312Z" transform="translate(0 -304.643)" fill="none" stroke="#ab00ff" stroke-width="2"/>
        </g>
      </g>
      <g id="Group_2243" data-name="Group 2243" transform="translate(100.142 15.824)">
        <g id="Group_2242" data-name="Group 2242">
          <path id="Path_383" data-name="Path 383" d="M350.8,28.474a6.178,6.178,0,0,0-8.529-1.9A547.562,547.562,0,0,0,162.923,213.084,6.178,6.178,0,1,0,173.6,219.3,537.486,537.486,0,0,1,348.9,37,6.179,6.179,0,0,0,350.8,28.474Z" transform="translate(-162.083 -25.61)" fill="none" stroke="#ab00ff" stroke-width="2"/>
        </g>
      </g>
      <g id="Group_2245" data-name="Group 2245" transform="translate(303.911 0.001)">
        <g id="Group_2244" data-name="Group 2244">
          <path id="Path_384" data-name="Path 384" d="M503.517,3.142A6.177,6.177,0,0,0,495.1.8l-.067.038A6.178,6.178,0,1,0,501.11,11.6l.067-.038A6.178,6.178,0,0,0,503.517,3.142Z" transform="translate(-491.891 -0.001)" fill="none" stroke="#ab00ff" stroke-width="2"/>
        </g>
      </g>
      <g id="Group_2247" data-name="Group 2247" transform="translate(82.584 0.104)">
        <g id="Group_2246" data-name="Group 2246">
          <path id="Path_385" data-name="Path 385" d="M268,2.715a6.179,6.179,0,0,0-8.63-1.368,371.167,371.167,0,0,0-120.1,147.661l-5.059,11.235a6.178,6.178,0,1,0,11.267,5.073l5.059-11.235a358.787,358.787,0,0,1,116.1-142.736A6.179,6.179,0,0,0,268,2.715Z" transform="translate(-133.666 -0.167)" fill="none" stroke="#ab00ff" stroke-width="2"/>
        </g>
      </g>
      <g id="Group_2249" data-name="Group 2249" transform="translate(135.618 209.898)">
        <g id="Group_2248" data-name="Group 2248">
          <path id="Path_386" data-name="Path 386" d="M229.781,341.192a6.178,6.178,0,0,0-8.708.717l-.106.125a6.178,6.178,0,0,0,9.425,7.991l.106-.125A6.179,6.179,0,0,0,229.781,341.192Z" transform="translate(-219.502 -339.726)" fill="none" stroke="#ab00ff" stroke-width="2"/>
        </g>
      </g>
      <g id="Group_2251" data-name="Group 2251" transform="translate(150.612 72.823)">
        <g id="Group_2250" data-name="Group 2250">
          <path id="Path_387" data-name="Path 387" d="M408.673,120.965a6.178,6.178,0,0,0-8.436-2.276l-11.621,6.683A599.816,599.816,0,0,0,245.4,240.077a6.178,6.178,0,0,0,9.107,8.352A587.472,587.472,0,0,1,394.777,136.084L406.4,129.4A6.179,6.179,0,0,0,408.673,120.965Z" transform="translate(-243.771 -117.865)" fill="none" stroke="#ab00ff" stroke-width="2"/>
        </g>
      </g>
    </g>
  </g>
</svg>
