<svg xmlns="http://www.w3.org/2000/svg" width="1185.827" height="1072.816" viewBox="0 0 1185.827 1072.816">
  <g id="Group_2402" data-name="Group 2402" transform="translate(-100.184 -647.184)">
    <g id="saturn" transform="translate(960.667 1403.765)" opacity="0.3">
      <g id="Group_2221" data-name="Group 2221" transform="translate(0 34.144)">
        <g id="Group_2220" data-name="Group 2220">
          <path id="Path_331" data-name="Path 331" d="M383.116,332.5a8.105,8.105,0,1,0-8.105,8.105A8.115,8.115,0,0,0,383.116,332.5Z" transform="translate(-134.568 -140.598)" fill="none" stroke="#ab00ff" stroke-width="2"/>
          <path id="Path_332" data-name="Path 332" d="M265.068,380.145a21.614,21.614,0,1,0-21.614,21.614A21.636,21.636,0,0,0,265.068,380.145Zm-32.422,0a10.807,10.807,0,1,1,10.807,10.807A10.818,10.818,0,0,1,232.646,380.145Z" transform="translate(-81.363 -153.117)" fill="none" stroke="#ab00ff" stroke-width="2"/>
          <path id="Path_333" data-name="Path 333" d="M327.509,238.142a5.406,5.406,0,0,0-5.166,5.636A129.738,129.738,0,0,1,93.17,332.672a5.4,5.4,0,1,0-8.295,6.922,140.545,140.545,0,0,0,248.263-96.3A5.61,5.61,0,0,0,327.509,238.142Z" transform="translate(-30.669 -108.962)" fill="none" stroke="#ab00ff" stroke-width="2"/>
          <path id="Path_334" data-name="Path 334" d="M93.41,273.2a8.105,8.105,0,1,0,8.105,8.105A8.115,8.115,0,0,0,93.41,273.2Z" transform="translate(-31.287 -121.82)" fill="none" stroke="#ab00ff" stroke-width="2"/>
          <path id="Path_335" data-name="Path 335" d="M340.449,170.8a16.211,16.211,0,1,0,16.211,16.211A16.231,16.231,0,0,0,340.449,170.8Zm0,21.614a5.4,5.4,0,1,1,5.4-5.4A5.409,5.409,0,0,1,340.449,192.412Z" transform="translate(-118.919 -84.264)" fill="none" stroke="#ab00ff" stroke-width="2"/>
          <path id="Path_336" data-name="Path 336" d="M146.456,136.664a27.018,27.018,0,1,0,27.018,27.018A27.049,27.049,0,0,0,146.456,136.664Zm0,43.229a16.211,16.211,0,1,1,16.211-16.211A16.231,16.231,0,0,1,146.456,179.893Z" transform="translate(-43.806 -71.744)" fill="none" stroke="#ab00ff" stroke-width="2"/>
          <path id="Path_337" data-name="Path 337" d="M272.61,111.064a8.105,8.105,0,1,0,8.105,8.105A8.115,8.115,0,0,0,272.61,111.064Z" transform="translate(-97.011 -62.355)" fill="none" stroke="#ab00ff" stroke-width="2"/>
          <path id="Path_338" data-name="Path 338" d="M323.3,112.189c-2.464-6.365-8.916-10.516-19.178-12.337a5.4,5.4,0,1,0-1.886,10.635c6.1,1.086,10.008,3.08,10.985,5.609,1.443,3.718-2.226,11.5-15.276,22.76a137.359,137.359,0,0,0-4.874-14.946,140.495,140.495,0,0,0-259.53-5.89,139.546,139.546,0,0,0-2.437,107.5,136.418,136.418,0,0,0,6.614,14.606c-17.216.557-25.148-2.675-26.586-6.376-1.059-2.724.492-7.192,4.145-11.953A5.4,5.4,0,1,0,6.7,215.22C.555,223.233-1.455,231.2,1.052,237.655,4.494,246.539,15.577,251,34.1,251a182.106,182.106,0,0,0,26.11-2.188c31.611-4.658,73.343-16.659,117.512-33.794,44.055-17.086,82.94-36.442,109.488-54.5C316,140.936,328.138,124.676,323.3,112.189Zm-42.16,39.392c-25.894,17.605-64.006,36.555-107.321,53.361-43.44,16.849-84.339,28.629-115.178,33.173-3.215.476-6.2.838-9.051,1.14a122.2,122.2,0,0,1-8.408-17.643,129.683,129.683,0,1,1,241.812-93.8,121.679,121.679,0,0,1,5.625,18.442C286.3,147.977,283.845,149.739,281.137,151.581Z" transform="translate(0 -34.144)" fill="none" stroke="#ab00ff" stroke-width="2"/>
          <path id="Path_339" data-name="Path 339" d="M226.814,239.064a13.509,13.509,0,1,0,13.509,13.509A13.524,13.524,0,0,0,226.814,239.064Zm0,16.211a2.7,2.7,0,1,1,2.7-2.7A2.706,2.706,0,0,1,226.814,255.275Z" transform="translate(-78.233 -109.301)" fill="none" stroke="#ab00ff" stroke-width="2"/>
        </g>
      </g>
    </g>
    <g id="solar-system" transform="translate(101.184 648.184)" opacity="0.3">
      <g id="Group_2227" data-name="Group 2227" transform="translate(19.888 19.505)">
        <g id="Group_2226" data-name="Group 2226">
          <path id="Path_375" data-name="Path 375" d="M261.64,41.862c-5.776-5.776-18.006-10.524-43.463-.337a5.485,5.485,0,1,0,4.075,10.184c15.307-6.125,26.836-6.887,31.632-2.09,6.368,6.367,2.784,24.379-9.352,47.007-3.448,6.429-7.481,13.1-12.028,19.937A87.765,87.765,0,1,0,116.733,232.125a230.953,230.953,0,0,1-23.639,13.87,26.557,26.557,0,0,0-45.477,1.349c-1.674-8.876,2.817-24.172,12.755-42.406a5.485,5.485,0,0,0-9.632-5.25c-15.993,29.343-18.8,50.5-8.111,61.186a5.46,5.46,0,0,0,1.6,1.106,26.583,26.583,0,1,0,52.8-5.687,255.235,255.235,0,0,0,32.525-19.653A87.788,87.788,0,0,0,237,129.4a272.394,272.394,0,0,0,17.2-27.592C269.59,73.115,272.163,52.385,261.64,41.862ZM70.764,276.012A15.616,15.616,0,1,1,86.38,260.395,15.634,15.634,0,0,1,70.764,276.012ZM127.587,224.6a76.8,76.8,0,1,1,97.368-97.2,443.058,443.058,0,0,1-44.821,51.966A443.591,443.591,0,0,1,127.587,224.6Zm24.548,4.022a77.122,77.122,0,0,1-10.61-.737,465.962,465.962,0,0,0,46.366-40.76,466.5,466.5,0,0,0,40.33-45.765,76.8,76.8,0,0,1-76.086,87.262Z" transform="translate(-36.261 -35.562)" fill="none" stroke="#ab00ff" stroke-width="2"/>
        </g>
      </g>
      <g id="Group_2229" data-name="Group 2229" transform="translate(179.23 34.224)">
        <g id="Group_2228" data-name="Group 2228">
          <path id="Path_376" data-name="Path 376" d="M337.286,65.23a5.486,5.486,0,0,0-7.454-2.145c-.046.025-.1.056-.165.093h0l-.072.041a5.484,5.484,0,1,0,5.348,9.577l.107-.06.092-.05A5.485,5.485,0,0,0,337.286,65.23Z" transform="translate(-326.783 -62.399)" fill="none" stroke="#ab00ff" stroke-width="2"/>
        </g>
      </g>
      <g id="Group_2231" data-name="Group 2231" transform="translate(190.867 190.867)">
        <g id="Group_2230" data-name="Group 2230">
          <path id="Path_377" data-name="Path 377" d="M392.974,348a44.975,44.975,0,1,0,44.975,44.974A45.025,45.025,0,0,0,392.974,348Zm0,78.98a34.005,34.005,0,1,1,34.005-34.005A34.044,34.044,0,0,1,392.974,426.98Z" transform="translate(-348 -348)" fill="none" stroke="#ab00ff" stroke-width="2"/>
        </g>
      </g>
      <g id="Group_2233" data-name="Group 2233" transform="translate(240.23 105.306)">
        <g id="Group_2232" data-name="Group 2232">
          <path id="Path_378" data-name="Path 378" d="M458.293,192a20.293,20.293,0,1,0,20.293,20.293A20.316,20.316,0,0,0,458.293,192Zm0,29.617a9.324,9.324,0,1,1,9.324-9.324A9.334,9.334,0,0,1,458.293,221.617Z" transform="translate(-438 -192)" fill="none" stroke="#ab00ff" stroke-width="2"/>
        </g>
      </g>
      <g id="Group_2235" data-name="Group 2235">
        <g id="Group_2234" data-name="Group 2234">
          <path id="Path_379" data-name="Path 379" d="M34.005,0A34.005,34.005,0,1,0,68.01,34.005,34.044,34.044,0,0,0,34.005,0Zm0,57.041A23.036,23.036,0,1,1,57.041,34.005,23.062,23.062,0,0,1,34.005,57.041Z" fill="none" stroke="#ab00ff" stroke-width="2"/>
        </g>
      </g>
      <g id="Group_2237" data-name="Group 2237" transform="translate(130.167 74.261)">
        <g id="Group_2236" data-name="Group 2236">
          <path id="Path_380" data-name="Path 380" d="M242.922,135.4h-.11a5.485,5.485,0,0,0,0,10.969h.11a5.485,5.485,0,1,0,0-10.969Z" transform="translate(-237.328 -135.397)" fill="none" stroke="#ab00ff" stroke-width="2"/>
        </g>
      </g>
      <g id="Group_2239" data-name="Group 2239" transform="translate(74.261 78.836)">
        <g id="Group_2238" data-name="Group 2238">
          <path id="Path_381" data-name="Path 381" d="M179.721,147.049a5.484,5.484,0,0,0-7.211-2.858A61.488,61.488,0,0,0,135.4,200.664a5.485,5.485,0,0,0,10.969,0,50.526,50.526,0,0,1,30.5-46.4A5.484,5.484,0,0,0,179.721,147.049Z" transform="translate(-135.397 -143.738)" fill="none" stroke="#ab00ff" stroke-width="2"/>
        </g>
      </g>
    </g>
    <g id="rocket_1_" data-name="rocket (1)" transform="translate(91.876 1302.225) rotate(-13)" opacity="0.3">
      <g id="Group_2277" data-name="Group 2277" transform="translate(119.046 57.884)">
        <g id="Group_2276" data-name="Group 2276">
          <path id="Path_400" data-name="Path 400" d="M307.125,131.895a32.372,32.372,0,1,0,9.481,22.89A32.158,32.158,0,0,0,307.125,131.895Zm-6.683,39.1a22.919,22.919,0,1,1,6.713-16.207A22.768,22.768,0,0,1,300.442,170.991Z" transform="translate(-251.865 -122.414)" fill="none" stroke="#ab00ff" stroke-width="2"/>
        </g>
      </g>
      <g id="Group_2279" data-name="Group 2279" transform="translate(17.596 0.047)">
        <g id="Group_2278" data-name="Group 2278">
          <path id="Path_401" data-name="Path 401" d="M221.344,115.843a147.543,147.543,0,0,0,40-110.425,4.727,4.727,0,0,0-1.364-3.662l-.045-.045A4.718,4.718,0,0,0,256.259.33a147.522,147.522,0,0,0-110.423,40l-6.753-1.386A110.337,110.337,0,0,0,38.611,69.091a4.726,4.726,0,0,0,0,6.683l41.854,41.854L70.106,127.988a4.726,4.726,0,0,0,0,6.683l11.838,11.838c-.251-.005-.5-.018-.752-.018a33.815,33.815,0,0,0-24.068,9.967c-.233.232-.46.468-.66.68-11.127,11.572-15.172,27.449-16.606,38.73a103.759,103.759,0,0,0-.792,15.5c.2,7.727.832,8.36,1.883,9.411,1.092,1.092,1.64,1.639,9.36,1.825.713.017,1.507.028,2.375.028a106.217,106.217,0,0,0,13.111-.814c11.313-1.42,27.227-5.445,38.756-16.527.239-.226.476-.454.71-.688a33.938,33.938,0,0,0,9.936-24.837l11.853,11.853a4.726,4.726,0,0,0,6.683,0l10.359-10.359L185.9,223.068a4.726,4.726,0,0,0,6.683,0A110.341,110.341,0,0,0,222.731,122.6ZM48.713,72.511a100.884,100.884,0,0,1,88.47-24.3l.575.118L81.142,104.939Zm35.615,90.844c.066-.07.133-.14.206-.212a9.931,9.931,0,0,1,14.04,0l0,0,.005.005a9.932,9.932,0,0,1,0,14.036c-.071.071-.144.141-.243.235-5.747,5.524-15.3,6.682-20.782,6.725C77.6,178.8,78.715,169.192,84.328,163.355Zm14.251,34.561,0,0c-.17.171-.343.337-.545.528-9.368,9-22.616,12.482-32.079,13.813a95.3,95.3,0,0,1-17.365.83,92.8,92.8,0,0,1,.847-17.506c1.353-9.389,4.853-22.545,13.867-31.92.164-.174.331-.347.5-.519A24.4,24.4,0,0,1,78.2,156.129c-.114.109-.232.215-.344.328-.133.133-.263.267-.365.375-4.758,4.949-7.851,12.108-8.944,20.705a54.331,54.331,0,0,0-.414,8.107c.095,3.665.332,5.014,1.638,6.32,1.359,1.355,2.8,1.514,6.289,1.6.373.009.788.015,1.242.015a55.556,55.556,0,0,0,6.852-.425c8.621-1.083,15.791-4.166,20.709-8.893.133-.127.266-.254.4-.384l0,0c.109-.109.211-.222.317-.333A24.455,24.455,0,0,1,98.579,197.916Zm31.813-16.325-25.128-25.128,0,0,0,0L80.131,131.329l7.017-7.017,25.047,25.047.04.04,25.174,25.174Zm17.047-10.354L87.825,111.622l12.993-12.993,22.341,22.341a4.726,4.726,0,1,0,6.683-6.683L107.5,91.946l42-42A138.082,138.082,0,0,1,252.092,9.588a138.026,138.026,0,0,1-8.378,52.541l-29.9-29.9a4.726,4.726,0,1,0-6.683,6.683l32.7,32.7a138.018,138.018,0,0,1-28.1,40.563l-61.679,61.678Zm41.73,41.73-32.429-32.429,56.615-56.615.118.575A100.886,100.886,0,0,1,189.168,212.966Z" transform="translate(-37.227 -0.047)" fill="none" stroke="#ab00ff" stroke-width="2"/>
        </g>
      </g>
      <g id="Group_2281" data-name="Group 2281" transform="translate(0.001 139.645)">
        <g id="Group_2280" data-name="Group 2280">
          <path id="Path_402" data-name="Path 402" d="M32.1,296.779a4.727,4.727,0,0,0-6.683,0L1.385,320.816A4.726,4.726,0,0,0,8.068,327.5l24.037-24.037A4.727,4.727,0,0,0,32.1,296.779Z" transform="translate(-0.001 -295.395)" fill="none" stroke="#ab00ff" stroke-width="2"/>
        </g>
      </g>
      <g id="Group_2283" data-name="Group 2283" transform="translate(68.961 217.012)">
        <g id="Group_2282" data-name="Group 2282">
          <path id="Path_403" data-name="Path 403" d="M169.506,460.466a4.726,4.726,0,0,0-6.683,0L147.285,476a4.726,4.726,0,0,0,6.683,6.683l15.538-15.538A4.727,4.727,0,0,0,169.506,460.466Z" transform="translate(-145.901 -459.082)" fill="none" stroke="#ab00ff" stroke-width="2"/>
        </g>
      </g>
      <g id="Group_2285" data-name="Group 2285" transform="translate(97.717 203.794)">
        <g id="Group_2284" data-name="Group 2284">
          <path id="Path_404" data-name="Path 404" d="M214.808,432.5a4.724,4.724,0,1,0,1.384,3.341A4.733,4.733,0,0,0,214.808,432.5Z" transform="translate(-206.741 -431.117)" fill="none" stroke="#ab00ff" stroke-width="2"/>
        </g>
      </g>
      <g id="Group_2287" data-name="Group 2287" transform="translate(114.881 125.641)">
        <g id="Group_2286" data-name="Group 2286">
          <path id="Path_405" data-name="Path 405" d="M251.121,267.148a4.73,4.73,0,1,0,1.384,3.346A4.758,4.758,0,0,0,251.121,267.148Z" transform="translate(-243.054 -265.768)" fill="none" stroke="#ab00ff" stroke-width="2"/>
        </g>
      </g>
    </g>
    <g id="meteor" transform="translate(977.255 701.408)" opacity="0.3">
      <g id="Group_2225" data-name="Group 2225" transform="translate(0.078 -0.001)">
        <g id="Group_2224" data-name="Group 2224">
          <path id="Path_354" data-name="Path 354" d="M362.146,468.626a56.793,56.793,0,0,0,20.371.075,4.675,4.675,0,1,0-1.651-9.2,47.6,47.6,0,0,1-16.995-.065,4.678,4.678,0,1,0-1.726,9.195Z" transform="translate(-161.992 -207.607)" fill="none" stroke="#ab00ff" stroke-width="2"/>
          <path id="Path_355" data-name="Path 355" d="M423.019,434.893a4.677,4.677,0,0,0,2.558-.762,55.945,55.945,0,0,0,21.55-26.446,4.678,4.678,0,1,0-8.708-3.424A46.624,46.624,0,0,1,420.456,426.3a4.677,4.677,0,0,0,2.563,8.591Z" transform="translate(-189.114 -181.365)" fill="none" stroke="#ab00ff" stroke-width="2"/>
          <path id="Path_356" data-name="Path 356" d="M403.457,338.452a14.03,14.03,0,1,0-14.03,14.03A14.044,14.044,0,0,0,403.457,338.452Zm-14.03,4.677a4.676,4.676,0,1,1,4.676-4.676A4.681,4.681,0,0,1,389.427,343.129Z" transform="translate(-169.706 -146.624)" fill="none" stroke="#ab00ff" stroke-width="2"/>
          <path id="Path_357" data-name="Path 357" d="M317.155,217.361a4.68,4.68,0,0,0,3.55-7.721l-14.395-16.8a4.675,4.675,0,0,0-7.1,6.079l14.4,16.808A4.658,4.658,0,0,0,317.155,217.361Z" transform="translate(-134.763 -86.413)" fill="none" stroke="#ab00ff" stroke-width="2"/>
          <path id="Path_358" data-name="Path 358" d="M256.084,321.489a65.525,65.525,0,0,0,5.023,25.174,4.677,4.677,0,1,0,8.633-3.6,56.148,56.148,0,0,1-4.3-21.6c-.052-20.834,8.329-28.373,18.028-37.1,4.447-4,9.054-8.142,13.165-13.726,3.886-5.275,16.546-5.275,24.927-5.275,2.357,0,4.8,1.4,7.894,3.175,4.859,2.792,10.9,6.262,20.081,6.262a4.676,4.676,0,0,0,0-9.353c-6.683,0-11.126-2.549-15.424-5.018-3.788-2.175-7.7-4.419-12.552-4.419-10.873,0-25.764,0-32.456,9.082-3.545,4.812-7.792,8.628-11.893,12.318C266.793,286.78,256.018,296.469,256.084,321.489Z" transform="translate(-115.781 -115.702)" fill="none" stroke="#ab00ff" stroke-width="2"/>
          <path id="Path_359" data-name="Path 359" d="M264.9,157.69a4.677,4.677,0,1,0,7.2-5.968L257.16,133.689a4.678,4.678,0,0,0-7.2,5.972Z" transform="translate(-112.527 -59.657)" fill="none" stroke="#ab00ff" stroke-width="2"/>
          <path id="Path_360" data-name="Path 360" d="M314.145,384.156a7.015,7.015,0,1,0,7.015,7.015A7.024,7.024,0,0,0,314.145,384.156Z" transform="translate(-138.852 -173.621)" fill="none" stroke="#ab00ff" stroke-width="2"/>
          <path id="Path_361" data-name="Path 361" d="M332.713,319.342a47.183,47.183,0,0,1,12.066-11.977,4.677,4.677,0,0,0-5.28-7.721,56.581,56.581,0,0,0-14.46,14.343,4.679,4.679,0,0,0,7.674,5.354Z" transform="translate(-146.566 -135.058)" fill="none" stroke="#ab00ff" stroke-width="2"/>
          <path id="Path_362" data-name="Path 362" d="M185.607,190.2a4.676,4.676,0,0,0,3.306-7.983l-18.7-18.693a4.676,4.676,0,0,0-6.613,6.613l18.7,18.693A4.645,4.645,0,0,0,185.607,190.2Z" transform="translate(-73.365 -73.284)" fill="none" stroke="#ab00ff" stroke-width="2"/>
          <path id="Path_363" data-name="Path 363" d="M358.484,408.084a7.015,7.015,0,1,0,7.015-7.015A7.024,7.024,0,0,0,358.484,408.084Z" transform="translate(-162.062 -181.265)" fill="none" stroke="#ab00ff" stroke-width="2"/>
          <path id="Path_364" data-name="Path 364" d="M74.852,193.646a4.677,4.677,0,0,0-6.052,7.132L88.531,217.51a4.677,4.677,0,1,0,6.052-7.132Z" transform="translate(-30.393 -87.017)" fill="none" stroke="#ab00ff" stroke-width="2"/>
          <path id="Path_365" data-name="Path 365" d="M15.492,22.023a4.676,4.676,0,0,0,6.613-6.613L8.066,1.371A4.676,4.676,0,1,0,1.453,7.984Z" transform="translate(-0.08 0.001)" fill="none" stroke="#ab00ff" stroke-width="2"/>
          <path id="Path_366" data-name="Path 366" d="M66.673,73.2a4.676,4.676,0,0,0,6.613-6.613L59.266,52.571a4.676,4.676,0,1,0-6.613,6.613Z" transform="translate(-23.22 -23.14)" fill="none" stroke="#ab00ff" stroke-width="2"/>
          <path id="Path_367" data-name="Path 367" d="M278.122,202.4a56.533,56.533,0,0,1-2.2-15.246c0-17.43-6.772-25.67-12.22-32.292-.926-1.127-1.829-2.221-2.661-3.334L148.8,1.872a4.677,4.677,0,0,0-7.483,5.612l112.24,149.648c.912,1.225,1.9,2.427,2.923,3.666,4.957,6.033,10.087,12.276,10.087,26.353a65.141,65.141,0,0,0,2.483,17.519,55.936,55.936,0,0,1,2.193,15.134,23.9,23.9,0,0,1-2.058,10.387,31.239,31.239,0,0,0-2.619,13.081c0,10.822-13.048,17.509-24.567,23.411l-.949.491c-8.03,4.115-22.616,4.064-33.148,4.073h-2.049c-4.19,0-8.39-2.287-12.832-4.7a59.275,59.275,0,0,0-9.129-4.316,99.966,99.966,0,0,0-10.56-2.769c-6.21-1.384-11.575-2.577-16.116-5.981L7.563,141.236a4.677,4.677,0,0,0-5.612,7.483L151.6,260.958c6.155,4.611,13.039,6.145,19.7,7.628a93.445,93.445,0,0,1,9.583,2.5,52.057,52.057,0,0,1,7.665,3.671c5.027,2.741,10.733,5.846,17.3,5.846h2.034c.762,0,1.538,0,2.319,0,11.762,0,25.693-.281,35.112-5.112l.945-.486c13.216-6.767,29.655-15.195,29.655-31.736a22.089,22.089,0,0,1,1.959-9.638,32.745,32.745,0,0,0,2.717-13.829A64.623,64.623,0,0,0,278.122,202.4Z" transform="translate(-0.078 0)" fill="none" stroke="#ab00ff" stroke-width="2"/>
          <path id="Path_368" data-name="Path 368" d="M1.734,144.775l20.68,17.537a4.677,4.677,0,0,0,6.052-7.132L7.786,137.643a4.677,4.677,0,0,0-6.052,7.132Z" transform="translate(-0.08 -61.707)" fill="none" stroke="#ab00ff" stroke-width="2"/>
          <path id="Path_369" data-name="Path 369" d="M141.1,249.414a4.676,4.676,0,1,0-6.136,7.057l17.205,14.951a4.676,4.676,0,1,0,6.131-7.062Z" transform="translate(-60.314 -112.204)" fill="none" stroke="#ab00ff" stroke-width="2"/>
          <path id="Path_370" data-name="Path 370" d="M192.294,306.349,209.466,320.7a4.676,4.676,0,0,0,6-7.178L198.29,299.171a4.676,4.676,0,1,0-6,7.178Z" transform="translate(-86.192 -134.72)" fill="none" stroke="#ab00ff" stroke-width="2"/>
          <path id="Path_371" data-name="Path 371" d="M245.336,249.932a4.676,4.676,0,0,0,3.306-7.983l-18.7-18.7a4.676,4.676,0,1,0-6.613,6.613l18.7,18.7A4.664,4.664,0,0,0,245.336,249.932Z" transform="translate(-100.357 -100.277)" fill="none" stroke="#ab00ff" stroke-width="2"/>
          <path id="Path_372" data-name="Path 372" d="M155.431,28.632a4.679,4.679,0,0,0,7.146-6.042L144.866,1.657A4.679,4.679,0,0,0,137.72,7.7Z" transform="translate(-61.787 0)" fill="none" stroke="#ab00ff" stroke-width="2"/>
          <path id="Path_373" data-name="Path 373" d="M211.056,94.222a4.677,4.677,0,0,0,7.165-6.014L201.543,68.337a4.679,4.679,0,0,0-7.17,6.014Z" transform="translate(-87.397 -30.132)" fill="none" stroke="#ab00ff" stroke-width="2"/>
          <path id="Path_374" data-name="Path 374" d="M122.555,129.086a4.676,4.676,0,1,0,6.613-6.613l-18.7-18.7a4.676,4.676,0,1,0-6.613,6.613Z" transform="translate(-46.36 -46.279)" fill="none" stroke="#ab00ff" stroke-width="2"/>
        </g>
      </g>
    </g>
  </g>
</svg>
