<svg xmlns="http://www.w3.org/2000/svg" width="1107.149" height="764.76" viewBox="0 0 1107.149 764.76">
  <g id="Group_2215" data-name="Group 2215" transform="translate(-118.516 -930.24)">
    <path id="Union_26" data-name="Union 26" d="M1.841,205.969A6.288,6.288,0,0,1,.57,198.908L45.61,100.533A6.285,6.285,0,0,1,55.769,98.7l53.242,53.242a6.3,6.3,0,0,1-1.734,10.253L8.9,207.24a6.285,6.285,0,0,1-7.061-1.271Zm17.195-17.195,15.386-7.044-9.9-4.948Zm10.727-23.429L49.1,175.011l13.168-6.028-27.8-13.9Zm9.935-21.7,37.24,18.621,13.168-6.029L44.4,133.382Zm9.936-21.7,23.194,11.6L53.275,113.989Zm86.139,74.543-4.444-4.445-4.445,4.445a6.286,6.286,0,0,1-8.889-8.889l4.445-4.445-4.445-4.444a6.286,6.286,0,1,1,8.889-8.889l4.445,4.444,4.445-4.445a6.286,6.286,0,1,1,8.889,8.89l-4.445,4.444,4.445,4.445a6.286,6.286,0,0,1-8.89,8.889Zm26.965-8.593a6.286,6.286,0,1,1,4.445,1.841A6.286,6.286,0,0,1,162.737,187.895Zm29.668-25.171-74.343-19.394a6.286,6.286,0,0,1,1.1-12.349l76.236-5.949a6.285,6.285,0,0,1,6.757,6.735l-1.895,25.344a6.275,6.275,0,0,1-7.854,5.613ZM157.419,140.6l30.866,8.053.786-10.523Zm5.022-24.121A18.877,18.877,0,1,1,175.775,122,18.877,18.877,0,0,1,162.441,116.483ZM171.33,98.7a6.293,6.293,0,1,0,4.445-1.838A6.293,6.293,0,0,0,171.33,98.7Zm-80,17.778a6.283,6.283,0,0,1-.67-8.1L135.1,46.16a6.287,6.287,0,0,1,9.561-.791l17.778,17.778a6.285,6.285,0,0,1-.791,9.559L99.425,117.153a6.283,6.283,0,0,1-8.1-.67ZM122.807,85l25.5-18.213-7.285-7.285Zm4.077,31.48a6.284,6.284,0,1,1,4.445,1.842A6.286,6.286,0,0,1,126.883,116.483ZM28.047,99.9a6.287,6.287,0,0,1-4.969-4.4l-4.083-13.69L5.4,77.415A6.286,6.286,0,0,1,3.769,66.261l11.7-8.075-.258-14.515A6.286,6.286,0,0,1,25.33,38.576l11.642,8.956L50.541,43.1a6.284,6.284,0,0,1,6.394,1.531l.051.051a6.288,6.288,0,0,1,1.434,6.481L53.676,64.642l8.411,11.546a6.285,6.285,0,0,1-5.233,9.985l-14.281-.348L34.191,97.394A6.287,6.287,0,0,1,28.047,99.9ZM28.1,61.333a6.287,6.287,0,0,1-2.715,5.285L21.39,69.375l4.618,1.493a6.294,6.294,0,0,1,4.09,4.184L31.484,79.7l2.848-3.93a6.289,6.289,0,0,1,5.243-2.6l4.852.119-2.859-3.922a6.285,6.285,0,0,1-.848-5.788l1.612-4.578-4.614,1.506a6.291,6.291,0,0,1-5.783-.994L28.014,56.5ZM82.437,89.816a6.288,6.288,0,1,1,4.445,1.841A6.286,6.286,0,0,1,82.437,89.816ZM77.371,64.235A6.286,6.286,0,0,1,72.5,58.224L71.563,6.4a6.284,6.284,0,0,1,7.7-6.237l24.5,5.655a6.285,6.285,0,0,1,4.184,8.983L84.383,60.967a6.279,6.279,0,0,1-7.011,3.268Zm7.243-31.377,8.473-16.6-8.81-2.034ZM46.584,18.4a6.284,6.284,0,1,1,4.445,1.842A6.284,6.284,0,0,1,46.584,18.4Z" transform="translate(881.204 931.263)" fill="none" stroke="#9e2eff" stroke-width="2" opacity="0.3"/>
    <path id="Union_25" data-name="Union 25" d="M1.811,206.054a6.089,6.089,0,0,1-.055-8.61l44.614-42.3a18.3,18.3,0,0,1,3.376-20.8l51.4-52.359H82.426a6.088,6.088,0,1,1,0-12.176H113.1l1.935-1.972L93.375,45.465l-12.692-4.1L65.436,46.607a6.089,6.089,0,0,1-7.773-7.628l4.955-15.342L57.375,8.391A6.088,6.088,0,0,1,65,.618L80.345,5.572,95.592.331a6.089,6.089,0,0,1,7.773,7.628L98.41,23.3l5.241,15.247c0,.013.008.027.012.04l20.657,21.337q.342-.164.69-.314V26.594a6.088,6.088,0,0,1,12.177,0V58.811a18.063,18.063,0,0,1,2.806,1.046l21.831-22.239,4.514-13.974L161.1,8.4A6.088,6.088,0,0,1,168.725.625L184.066,5.58,199.313.339a6.088,6.088,0,0,1,7.773,7.628l-4.954,15.342,5.242,15.247a6.088,6.088,0,0,1-7.628,7.773L184.4,41.374l-13.888,4.774L148.663,68.409c.223.458.423.927.606,1.4h32.825a6.088,6.088,0,0,1,0,12.177H149.621a17.993,17.993,0,0,1-.869,2.21l19.964,20.242,15.052,4.861,15.247-5.241a6.088,6.088,0,0,1,7.773,7.628l-4.954,15.342,5.241,15.247a6.088,6.088,0,0,1-7.628,7.773L184.1,145.1l-15.246,5.241a6.089,6.089,0,0,1-7.773-7.629l4.954-15.342-4.381-12.741L140.929,93.607l-3.742,3.811v28.844a6.088,6.088,0,1,1-12.176,0V109.822l-49.2,50.111a18.3,18.3,0,0,1-20.765,3.753L10.42,206a6.089,6.089,0,0,1-8.61.055Zm56.624-63.179a6.088,6.088,0,0,0,8.691,8.528l48.123-49.018-8.69-8.529Zm119.778-17.549a6.089,6.089,0,0,1,.037,3.85l-1.837,5.687,5.651-1.943a6.089,6.089,0,0,1,3.85-.036l5.687,1.836-1.943-5.651a6.089,6.089,0,0,1-.036-3.85l1.836-5.686-5.651,1.942a6.087,6.087,0,0,1-3.849.037l-5.687-1.837ZM132.171,70.311c-.093,0-.184.011-.276.016-.155.02-.312.033-.47.041a6.038,6.038,0,0,0-3.541,1.767l-12.8,13.034,8.69,8.529,12.8-13.034a6.078,6.078,0,0,0,.228-8.273c-.1-.09-.21-.178-.309-.275s-.208-.221-.308-.334a6.006,6.006,0,0,0-3.951-1.47ZM178.512,21.6a6.089,6.089,0,0,1,.036,3.85l-1.836,5.686,5.65-1.943a6.089,6.089,0,0,1,3.85-.036L191.9,31l-1.943-5.651a6.089,6.089,0,0,1-.037-3.85l1.837-5.686-5.652,1.942a6.082,6.082,0,0,1-3.849.037l-5.687-1.836ZM74.791,21.6a6.084,6.084,0,0,1,.037,3.85l-1.836,5.686,5.651-1.943a6.089,6.089,0,0,1,3.85-.036l5.686,1.836L86.236,25.34a6.089,6.089,0,0,1-.036-3.85L88.036,15.8l-5.652,1.943a6.087,6.087,0,0,1-3.849.036l-5.687-1.836Zm62.833,170.99a6.089,6.089,0,0,1-.08-8.61l4.264-4.345-4.346-4.265a6.088,6.088,0,0,1,8.53-8.69l4.345,4.264L154.6,166.6a6.088,6.088,0,1,1,8.69,8.529l-4.264,4.345,4.346,4.264a6.088,6.088,0,0,1-8.529,8.691l-4.346-4.264-4.264,4.345a6.087,6.087,0,0,1-8.61.082Zm-10.835-47.311a6.088,6.088,0,1,1,6.088,6.088A6.088,6.088,0,0,1,126.788,145.276ZM24.971,116.152a6.088,6.088,0,0,1-.08-8.609l4.264-4.346L24.81,98.933a6.088,6.088,0,0,1,8.53-8.69l4.346,4.264,4.264-4.345a6.088,6.088,0,0,1,8.691,8.528l-4.264,4.346L50.72,107.3a6.088,6.088,0,0,1-8.529,8.691l-4.346-4.264-4.264,4.345a6.088,6.088,0,0,1-8.61.081ZM57.265,77.044a6.088,6.088,0,1,1,6.088,6.089A6.088,6.088,0,0,1,57.265,77.044Zm137.962-1.29a6.088,6.088,0,1,1,6.089,6.088A6.088,6.088,0,0,1,195.227,75.753ZM15.8,55.965a6.088,6.088,0,0,1-.08-8.609l4.264-4.346-4.346-4.264a6.088,6.088,0,1,1,8.53-8.69L28.51,34.32l4.264-4.346A6.088,6.088,0,0,1,41.464,38.5L37.2,42.849l4.346,4.264a6.088,6.088,0,0,1-8.53,8.69l-4.345-4.264-4.264,4.345a6.088,6.088,0,0,1-8.61.081Zm109.7-48.444a6.088,6.088,0,1,1,6.089,6.089A6.088,6.088,0,0,1,125.493,7.521Z" transform="translate(1016.895 1337.609)" fill="none" stroke="#9e2eff" stroke-width="2" opacity="0.3"/>
    <path id="Union_24" data-name="Union 24" d="M176.564,207.809H30.447a6.044,6.044,0,0,1-5.6-8.442c20.526-48.038,37.274-87.238,56.876-133.112A18.264,18.264,0,0,1,75.4,46.072,18.271,18.271,0,0,1,86.121,13.027a18.131,18.131,0,0,1,34.8,0,18.271,18.271,0,0,1,10.722,33.045,18.263,18.263,0,0,1-6.325,20.183c1.559,3.65,53.06,124.182,56.876,133.112a6.065,6.065,0,0,1-5.6,8.443ZM51.294,168.468l53.68,27.2h45.977l-91.582-46.1Zm-11.623,27.2h38.36L46.5,179.691ZM64.163,138.35l100.281,50.478-12.647-29.6L72.239,119.45Zm12.869-30.12L144.4,141.914l-12.454-29.147L85.1,89.345ZM93.376,69.981,89.9,78.126l34.65,17.325L113.661,69.977a18.243,18.243,0,0,1-10.142-3.465A18.284,18.284,0,0,1,93.376,69.981ZM109,54.3c.235.486.4.915.513,1.228,0,.011.009.023.012.034a6.09,6.09,0,0,0,9.841-7.147l-.029-.023c-.262-.21-.622-.5-1.013-.871a6.089,6.089,0,0,1,3.387-10.425c.451-.062.9-.093,1.368-.111a6.09,6.09,0,0,0-3.76-11.567l-.03.02c-.28.185-.663.437-1.138.692a6.088,6.088,0,0,1-8.869-6.444c.095-.53.216-.972.305-1.294,0-.012.007-.025.01-.037a6.082,6.082,0,1,0-12.162,0l.01.037c.089.323.211.765.306,1.295a6.089,6.089,0,0,1-8.87,6.444c-.4-.216-.785-.456-1.167-.712a6.091,6.091,0,0,0-3.761,11.568h.037c.335.016.795.037,1.33.11A6.089,6.089,0,0,1,88.71,47.517c-.39.375-.75.662-1.013.872l-.028.022a6.09,6.09,0,0,0,9.841,7.147c0-.011.008-.023.012-.034.117-.314.278-.743.513-1.228A6.089,6.089,0,0,1,109,54.3ZM12.179,152.639v-6.089H6.089a6.089,6.089,0,1,1,0-12.179h6.089v-6.089a6.089,6.089,0,0,1,12.179,0v6.089h6.089a6.089,6.089,0,1,1,0,12.179H24.358v6.089a6.089,6.089,0,0,1-12.179,0ZM170.5,140.46a6.089,6.089,0,1,1,6.089,6.089A6.09,6.09,0,0,1,170.5,140.46ZM158.323,79.568V73.478h-6.089a6.089,6.089,0,1,1,0-12.179h6.089V55.21a6.089,6.089,0,0,1,12.179,0V61.3h6.089a6.089,6.089,0,1,1,0,12.179H170.5v6.089a6.089,6.089,0,0,1-12.179,0Zm-109.609,0A6.089,6.089,0,1,1,54.8,85.657,6.09,6.09,0,0,1,48.714,79.567Z" transform="translate(119.516 968.75)" fill="none" stroke="#9e2eff" stroke-width="2" opacity="0.3"/>
    <path id="Union_23" data-name="Union 23" d="M51.282,202.2a18.343,18.343,0,0,1-14.35-17.863v-47.8C20.715,131.12,0,120.5,0,103.5,0,87.458,19.289,73.771,51.954,66.349q-.523-2.585-.96-5.225c-2.336-14.158-2.51-27.936-.489-38.8C53.562,5.888,60.567,1.242,65.9.237,76.467-1.75,84.622,9.128,89.442,18.682c4.506,8.937,8.123,20.546,10.269,33.558.482,2.921.875,5.841,1.174,8.733a55.255,55.255,0,0,1,6.029,0c.3-2.892.691-5.812,1.172-8.733,2.114-12.815,5.655-24.271,10.067-33.152C123,9.331,131.228-1.768,141.894.237c5.337,1,12.34,5.651,15.4,22.09,2.02,10.86,1.845,24.639-.49,38.8q-.434,2.637-.96,5.225C188.509,73.771,207.8,87.458,207.8,103.5c0,16.991-20.715,27.615-36.934,33.025v47.8a18.343,18.343,0,0,1-14.35,17.863A236.778,236.778,0,0,1,103.9,207.81,236.778,236.778,0,0,1,51.282,202.2Zm-2.174-17.863a6.22,6.22,0,0,0,4.93,6,224.42,224.42,0,0,0,49.86,5.3,224.412,224.412,0,0,0,49.86-5.3,6.22,6.22,0,0,0,4.93-6v-20c-16.3,4.022-35.056,6.137-54.79,6.137s-38.487-2.115-54.79-6.137Zm0-32.567C64.98,155.989,84.23,158.3,103.9,158.3s38.918-2.307,54.79-6.528V140.02c-16.238,3.968-35.117,6.1-54.79,6.1s-38.552-2.132-54.79-6.1ZM12.175,103.5c0,13.623,36.955,30.439,91.723,30.439s91.723-16.811,91.724-30.439c0-7.787-13.416-18.731-42.716-25.339-.841,2.825-1.758,5.552-2.747,8.149a55.023,55.023,0,0,1,6.063,13.106c.9-.471,1.547-.851,1.951-1.1a6.088,6.088,0,0,1,6.38,10.37c-10.1,6.214-30.863,13.079-60.657,13.079-30.692,0-51.15-7.232-60.655-13.079a6.088,6.088,0,1,1,6.38-10.37c.4.248,1.053.628,1.951,1.1a55.022,55.022,0,0,1,6.063-13.106c-.989-2.6-1.906-5.324-2.747-8.149C25.592,84.774,12.175,95.718,12.175,103.5ZM68.154,12.2c-.909.171-3.9,2.806-5.678,12.35-1.769,9.505-1.58,21.79.531,34.589A115.761,115.761,0,0,0,70.1,84.7a6.091,6.091,0,0,1-.69,5.94,42.665,42.665,0,0,0-6.507,13.366c8.953,2.827,22.44,5.587,40.992,5.587s32.039-2.76,40.992-5.587a42.686,42.686,0,0,0-6.507-13.367,6.087,6.087,0,0,1-.689-5.94,115.761,115.761,0,0,0,7.1-25.556c2.112-12.8,2.3-25.083.533-34.588-1.775-9.543-4.769-12.18-5.678-12.351-1.9-.36-5.945,3.471-10.025,11.349-3.642,7.031-7.312,17.287-9.52,30.669a130.139,130.139,0,0,0-1.544,13.851,6.091,6.091,0,0,1-7.144,5.653,43.334,43.334,0,0,0-15.026,0,6.092,6.092,0,0,1-7.144-5.653A130.125,130.125,0,0,0,87.7,54.221C85.357,40.03,81.371,29.354,77.518,22.31c-3.675-6.718-7.226-10.13-9.109-10.129A1.388,1.388,0,0,0,68.154,12.2ZM0,66.978A6.088,6.088,0,1,1,6.09,73.066,6.088,6.088,0,0,1,0,66.978ZM183.04,54.8V48.716h-6.088a6.088,6.088,0,0,1,0-12.177h6.088V30.452a6.088,6.088,0,1,1,12.175,0v6.087h6.494a6.088,6.088,0,1,1,0,12.177h-6.494V54.8a6.088,6.088,0,1,1-12.175,0ZM12.175,30.452V24.364H6.088a6.088,6.088,0,1,1,0-12.175h6.087V6.1a6.088,6.088,0,0,1,12.177,0v6.088h6.087a6.088,6.088,0,1,1,0,12.175H24.352v6.088a6.088,6.088,0,0,1-12.177,0ZM170.863,6.1a6.088,6.088,0,1,1,6.088,6.087A6.088,6.088,0,0,1,170.863,6.1Z" transform="translate(301.708 1486.189)" fill="none" stroke="#9e2eff" stroke-width="2" opacity="0.3"/>
  </g>
</svg>
