<?xml version="1.0" encoding="utf-8"?>
<!-- Generator: Adobe Illustrator 23.0.1, SVG Export Plug-In . SVG Version: 6.00 Build 0)  -->
<svg version="1.1" id="Layer_1" xmlns="http://www.w3.org/2000/svg" xmlns:xlink="http://www.w3.org/1999/xlink" x="0px" y="0px"
	 viewBox="0 0 1166.4 391.3" style="enable-background:new 0 0 1166.4 391.3;" xml:space="preserve">
<style type="text/css">
	.st0{opacity:0.3;}
	.st1{fill:none;stroke:#AB00FF;stroke-width:2;}
</style>
<g id="Group_2403" transform="translate(-86.164 -4790.662)">
	<g id="meteor" transform="translate(992.255 4791.667)" class="st0">
		<g id="Group_2225" transform="translate(0.078 -0.001)">
			<g id="Group_2224">
				<path id="Path_354" class="st1" d="M185,241.2c6.2,1.2,12.6,1.2,18.8,0.1c2.3-0.4,3.9-2.7,3.5-5c-0.4-2.3-2.7-3.9-5-3.5l0,0
					c-5.2,0.9-10.5,0.9-15.7-0.1c-2.3-0.4-4.6,1.1-5.1,3.4C181.1,238.5,182.6,240.8,185,241.2L185,241.2z"/>
				<path id="Path_355" class="st1" d="M216.2,234.3c0.8,0,1.7-0.2,2.4-0.7c9-5.9,16-14.4,19.9-24.4c0.9-2.2-0.3-4.7-2.5-5.6
					c-2.2-0.8-4.7,0.2-5.6,2.4c-3.3,8.4-9.1,15.5-16.6,20.4c-2,1.3-2.6,4-1.2,6C213.4,233.6,214.7,234.3,216.2,234.3L216.2,234.3z"
					/>
				<path id="Path_356" class="st1" d="M216,177.3c0-7.2-5.8-13-13-13s-13,5.8-13,13c0,7.2,5.8,13,13,13
					C210.2,190.3,216,184.5,216,177.3z M203.1,181.6c-2.4,0-4.3-1.9-4.3-4.3c0-2.4,1.9-4.3,4.3-4.3c2.4,0,4.3,1.9,4.3,4.3
					c0,0,0,0,0,0C207.4,179.7,205.5,181.6,203.1,181.6L203.1,181.6z"/>
				<path id="Path_357" class="st1" d="M168.6,121c2.4,0,4.3-1.9,4.3-4.3c0-1-0.4-2-1-2.8l-13.3-15.5c-1.6-1.8-4.3-2-6.1-0.5
					c-1.8,1.6-2,4.3-0.5,6.1l0,0l13.3,15.5C166.1,120.5,167.3,121,168.6,121z"/>
				<path id="Path_358" class="st1" d="M129.7,190.2c0,8,1.6,15.9,4.6,23.3c0.9,2.2,3.4,3.3,5.6,2.4c2.2-0.9,3.3-3.4,2.4-5.6
					c0,0,0-0.1,0-0.1c-2.6-6.3-4-13.1-4-20c0-19.3,7.7-26.2,16.7-34.3c4.1-3.7,8.4-7.5,12.2-12.7c3.6-4.9,15.3-4.9,23-4.9
					c2.2,0,4.4,1.3,7.3,2.9c4.5,2.6,10.1,5.8,18.6,5.8c2.4,0,4.3-1.9,4.3-4.3c0-2.4-1.9-4.3-4.3-4.3c-6.2,0-10.3-2.4-14.3-4.6
					c-3.5-2-7.1-4.1-11.6-4.1c-10,0-23.8,0-30,8.4c-3.3,4.2-6.9,8-11,11.4C139.6,158.1,129.6,167.1,129.7,190.2z"/>
				<path id="Path_359" class="st1" d="M140.8,90.6c1.5,1.8,4.2,2.1,6.1,0.6c1.8-1.5,2.1-4.2,0.6-6.1l0,0l-13.8-16.7
					c-1.6-1.8-4.3-2-6.1-0.5c-1.8,1.5-2,4.2-0.6,6L140.8,90.6z"/>
				<path id="Path_360" class="st1" d="M162,194.6c-3.6,0-6.5,2.9-6.5,6.5s2.9,6.5,6.5,6.5c3.6,0,6.5-2.9,6.5-6.5
					C168.5,197.5,165.6,194.6,162,194.6z"/>
				<path id="Path_361" class="st1" d="M172,170.3c3-4.3,6.8-8.1,11.2-11.1c2-1.3,2.5-4,1.1-6s-4-2.5-6-1.1
					c-5.2,3.6-9.7,8.1-13.4,13.3c-1.4,2-0.9,4.7,1.1,6S170.7,172.3,172,170.3L172,170.3z"/>
				<path id="Path_362" class="st1" d="M103.7,108.1c2.4,0,4.3-1.9,4.3-4.3c0-1.1-0.5-2.2-1.3-3.1L89.5,83.4
					c-1.7-1.7-4.4-1.7-6.1-0.1s-1.7,4.4-0.1,6.1c0,0,0,0,0.1,0.1l17.3,17.3C101.5,107.6,102.6,108.1,103.7,108.1z"/>
				<path id="Path_363" class="st1" d="M181.5,209.6c0,3.6,2.9,6.5,6.5,6.5s6.5-2.9,6.5-6.5c0-3.6-2.9-6.5-6.5-6.5
					C184.4,203.2,181.5,206.1,181.5,209.6z"/>
				<path id="Path_364" class="st1" d="M41.1,98.6C39.3,97,36.5,97.2,35,99c-1.5,1.8-1.3,4.5,0.5,6.1l18.2,15.5
					c1.8,1.5,4.5,1.3,6.1-0.5c1.5-1.8,1.3-4.5-0.5-6.1L41.1,98.6z"/>
				<path id="Path_365" class="st1" d="M14.2,20.4c1.7,1.7,4.4,1.6,6.1-0.1c1.7-1.7,1.7-4.4,0-6.1l-13-13C5.7-0.4,2.9-0.4,1.3,1.3
					c-1.7,1.7-1.7,4.4,0,6.1L14.2,20.4z"/>
				<path id="Path_366" class="st1" d="M40.2,46.3c1.7,1.7,4.4,1.6,6.1-0.1c1.7-1.7,1.7-4.4,0-6.1l-13-13c-1.7-1.7-4.4-1.6-6.1,0.1
					c-1.7,1.7-1.7,4.4,0,6.1L40.2,46.3z"/>
				<path id="Path_367" class="st1" d="M257,187.1c-1.3-4.6-2-9.3-2-14.1c0-16.1-6.3-23.7-11.3-29.8c-0.9-1-1.7-2.1-2.5-3.1
					L137.5,1.7c-1.4-1.9-4.1-2.3-6.1-0.9s-2.3,4.1-0.9,6.1l103.7,138.3c0.8,1.1,1.8,2.2,2.7,3.4c4.6,5.6,9.3,11.3,9.3,24.4
					c0,5.5,0.8,10.9,2.3,16.2c1.3,4.5,2,9.3,2,14c0.1,3.3-0.6,6.6-1.9,9.6c-1.7,3.8-2.5,7.9-2.4,12.1c0,10-12.1,16.2-22.7,21.6
					l-0.9,0.5c-7.4,3.8-20.9,3.8-30.6,3.8h-1.9c-3.9,0-7.8-2.1-11.9-4.3c-2.7-1.6-5.5-2.9-8.4-4c-3.2-1-6.5-1.9-9.8-2.6
					c-5.7-1.3-10.7-2.4-14.9-5.5L6.9,130.5c-1.9-1.4-4.6-1-6.1,0.9s-1,4.6,0.9,6.1L140,241.2c5.7,4.3,12.1,5.7,18.2,7.1
					c3,0.6,5.9,1.4,8.9,2.3c2.4,0.9,4.8,2.1,7.1,3.4c4.6,2.5,9.9,5.4,16,5.4h1.9c0.7,0,1.4,0,2.1,0c10.9,0,23.7-0.3,32.5-4.7
					l0.9-0.4c12.2-6.3,27.4-14,27.4-29.3c-0.1-3.1,0.5-6.1,1.8-8.9c1.8-4,2.6-8.4,2.5-12.8C259.2,197.7,258.5,192.3,257,187.1z"/>
				<path id="Path_368" class="st1" d="M1.5,76.8L20.6,93c1.8,1.5,4.5,1.3,6.1-0.5s1.3-4.5-0.5-6.1L7.1,70.2
					c-1.8-1.5-4.5-1.3-6.1,0.5S-0.3,75.2,1.5,76.8L1.5,76.8z"/>
				<path id="Path_369" class="st1" d="M74.7,126.8c-1.8-1.6-4.5-1.5-6.1,0.3c-1.6,1.8-1.5,4.5,0.3,6.1c0,0,0.1,0.1,0.1,0.1
					l15.9,13.8c1.8,1.6,4.5,1.4,6.1-0.3c1.6-1.8,1.4-4.5-0.3-6.1c0,0-0.1-0.1-0.1-0.1L74.7,126.8z"/>
				<path id="Path_370" class="st1" d="M98.1,158.6l15.9,13.3c1.8,1.5,4.6,1.2,6.1-0.6c1.5-1.8,1.3-4.5-0.5-6L103.6,152
					c-1.8-1.5-4.5-1.3-6.1,0.5C96,154.3,96.2,157,98.1,158.6C98,158.6,98,158.6,98.1,158.6z"/>
				<path id="Path_371" class="st1" d="M134,138.3c2.4,0,4.3-1.9,4.3-4.3c0-1.1-0.5-2.2-1.3-3.1l-17.3-17.3
					c-1.7-1.7-4.4-1.6-6.1,0.1c-1.7,1.7-1.7,4.4,0,6.1l17.3,17.3C131.7,137.9,132.8,138.3,134,138.3z"/>
				<path id="Path_372" class="st1" d="M86.5,26.5c1.6,1.8,4.3,1.9,6.1,0.3c1.7-1.5,1.9-4.1,0.5-5.9L76.8,1.5
					c-1.6-1.8-4.3-1.9-6.1-0.3c-1.7,1.5-1.9,4.1-0.5,5.9L86.5,26.5z"/>
				<path id="Path_373" class="st1" d="M114.3,59.2c1.5,1.8,4.3,2.1,6.1,0.5c1.8-1.5,2.1-4.3,0.5-6.1l-15.4-18.4
					c-1.5-1.8-4.3-2.1-6.1-0.5c-1.8,1.5-2.1,4.3-0.5,6.1l0,0L114.3,59.2z"/>
				<path id="Path_374" class="st1" d="M70.4,76.5c1.7,1.7,4.4,1.7,6.1,0.1c1.7-1.7,1.7-4.4,0.1-6.1c0,0,0,0-0.1-0.1L59.2,53.1
					c-1.7-1.7-4.4-1.6-6.1,0.1c-1.7,1.7-1.7,4.4,0,6.1L70.4,76.5z"/>
			</g>
		</g>
	</g>
</g>
</svg>
