<svg xmlns="http://www.w3.org/2000/svg" width="191.166" height="191.373" viewBox="0 0 191.166 191.373">
  <g id="shooting-star" transform="translate(1.004 1)">
    <g id="Group_2223" data-name="Group 2223" transform="translate(0 0)">
      <g id="Group_2222" data-name="Group 2222" transform="translate(0 0)">
        <path id="Path_340" data-name="Path 340" d="M.924,17.982a3.147,3.147,0,0,1,0-4.456l12.6-12.6a3.151,3.151,0,1,1,4.456,4.456l-12.6,12.6A3.154,3.154,0,0,1,.924,17.982Z" transform="translate(81.938 88.286)" fill="none" stroke="#ffdd36" stroke-width="2"/>
        <path id="Path_341" data-name="Path 341" d="M11.975,1.125A3.152,3.152,0,0,1,16.8,5.178L5.565,18.568A3.152,3.152,0,1,1,.738,14.515Z" transform="translate(71.351 144.815)" fill="none" stroke="#ffdd36" stroke-width="2"/>
        <path id="Path_342" data-name="Path 342" d="M15.751,0a3.151,3.151,0,0,1,2.228,5.379l-12.6,12.6A3.151,3.151,0,0,1,.924,13.522l12.6-12.6A3.144,3.144,0,0,1,15.751,0Z" transform="translate(59.882 110.346)" fill="none" stroke="#ffdd36" stroke-width="2"/>
        <path id="Path_343" data-name="Path 343" d="M5.249,17.815a3.153,3.153,0,0,1-4.195-4.708L14.864.8a3.152,3.152,0,1,1,4.195,4.7Z" transform="translate(49.22 78.832)" fill="none" stroke="#ffdd36" stroke-width="2"/>
        <path id="Path_344" data-name="Path 344" d="M12.681,1.116a3.152,3.152,0,1,1,4.812,4.072L5.559,19.3A3.153,3.153,0,0,1,.743,15.224Z" transform="translate(50.423 168.718)" fill="none" stroke="#ffdd36" stroke-width="2"/>
        <path id="Path_345" data-name="Path 345" d="M12.859,1.112A3.153,3.153,0,0,1,17.668,5.19L5.555,19.469A3.151,3.151,0,1,1,.749,15.391Z" transform="translate(91.883 119.8)" fill="none" stroke="#ffdd36" stroke-width="2"/>
        <path id="Path_346" data-name="Path 346" d="M63.557,1.4A3.151,3.151,0,0,1,68.8,4.9L5.773,99.439a3.151,3.151,0,1,1-5.244-3.5Z" transform="translate(94.542 88.286)" fill="none" stroke="#ffdd36" stroke-width="2"/>
        <path id="Path_347" data-name="Path 347" d="M116.031,80.628a7.672,7.672,0,0,1-7.724,4.478c-2.679-.353-25.863-3.823-33.2-4.922L59.568,108.515c-2.042,4.135-4.585,5-6.356,5-3.747,0-6.378-3.75-7.04-7.453-.646-3.6-3.731-24.19-4.743-30.956-7.119-1.664-30.247-7.056-33.9-7.708C4.268,66.819.7,64.676.086,61.21-.2,59.574,0,56.419,4.627,53.722c5.225-3.048,22.022-13.185,27.508-16.5L28.562,8.783a7.907,7.907,0,0,1,1.954-6.2A7.405,7.405,0,0,1,36.037,0a7.266,7.266,0,0,1,4.822,1.881C43.5,4.113,58.881,17.4,63.734,21.606c7.047-2.9,32.585-13.422,35.96-14.862a10.143,10.143,0,0,1,4-.873,6.907,6.907,0,0,1,6.06,3.255,7.761,7.761,0,0,1-.158,7.743C108.045,20.238,97.7,42.278,94.63,48.821L114.9,72.84A7.156,7.156,0,0,1,116.031,80.628ZM110.082,76.9,88.51,51.346a3.152,3.152,0,0,1-.444-3.372s13.982-29.778,15.9-33.921c.482-.889.485-1.516.372-1.7-.051-.088-.287-.177-.643-.177a3.915,3.915,0,0,0-1.519.366C98.232,14.219,65.72,27.6,64.339,28.174a3.172,3.172,0,0,1-3.262-.533S39.929,9.347,36.739,6.653a1.026,1.026,0,0,0-1.5.1A1.611,1.611,0,0,0,34.817,8l3.829,30.474a3.161,3.161,0,0,1-1.5,3.088C36.919,41.7,14.094,55.5,7.8,59.165A5.534,5.534,0,0,0,6.43,60.2a4.52,4.52,0,0,0,2.212,1c4.469.8,35.012,7.957,36.31,8.263a3.153,3.153,0,0,1,2.395,2.6c.044.29,4.286,28.747,5.03,32.891a4.9,4.9,0,0,0,.826,1.957,8.538,8.538,0,0,0,.778-1.308L70.636,75.227a3.127,3.127,0,0,1,3.23-1.6c.321.047,32.2,4.828,35.3,5.234a1.6,1.6,0,0,0,1.157-.889C110.438,77.716,110.513,77.423,110.082,76.9Z" transform="translate(72.371)" fill="none" stroke="#ffdd36" stroke-width="2"/>
        <path id="Path_348" data-name="Path 348" d="M13.527.923a3.151,3.151,0,0,1,4.456,4.456l-12.6,12.6A3.151,3.151,0,0,1,.924,13.526Z" transform="translate(37.816 132.409)" fill="none" stroke="#ffdd36" stroke-width="2"/>
        <path id="Path_349" data-name="Path 349" d="M1.113,12.564,15.048.747a3.151,3.151,0,1,1,4.078,4.806L5.191,17.37a3.151,3.151,0,1,1-4.078-4.806Z" transform="translate(0 120.588)" fill="none" stroke="#ffdd36" stroke-width="2"/>
        <path id="Path_350" data-name="Path 350" d="M93.28,5.673,5.042,71.848a3.15,3.15,0,1,1-3.782-5.039L89.5.63A3.151,3.151,0,0,1,93.28,5.673Z" transform="translate(0.001 22.107)" fill="none" stroke="#ffdd36" stroke-width="2"/>
        <path id="Path_351" data-name="Path 351" d="M10.384.923A3.151,3.151,0,0,1,14.84,5.379L5.38,14.84A3.151,3.151,0,0,1,.924,10.384Z" transform="translate(0 173.367)" fill="none" stroke="#ffdd36" stroke-width="2"/>
        <path id="Path_352" data-name="Path 352" d="M5.187,16.831a3.152,3.152,0,0,1-4.075-4.809L14.406.747a3.153,3.153,0,0,1,4.078,4.809Z" transform="translate(24.77 100.447)" fill="none" stroke="#ffdd36" stroke-width="2"/>
        <path id="Path_353" data-name="Path 353" d="M10.372.923a3.151,3.151,0,0,1,4.456,4.456L5.38,14.827A3.151,3.151,0,0,1,.924,10.371Z" transform="translate(18.908 154.471)" fill="none" stroke="#ffdd36" stroke-width="2"/>
      </g>
    </g>
  </g>
</svg>
